<?xml version="1.0" encoding="utf-8"?>
<!-- Generator: Adobe Illustrator 22.1.0, SVG Export Plug-In . SVG Version: 6.00 Build 0)  -->
<svg version="1.1" id="Layer_1" xmlns="http://www.w3.org/2000/svg" xmlns:xlink="http://www.w3.org/1999/xlink" x="0px" y="0px"
	 viewBox="0 0 864 864" style="enable-background:new 0 0 864 864;" xml:space="preserve">
<style type="text/css">
	.st0{fill:#151517;}
</style>
<path class="st0" d="M651.7,840.3c0.1,0.1,0.1,0.2,0,0.2c-0.2,0.2-0.4,0.1-0.6,0.1c-0.4-0.1-0.7-0.1-1.1,0c-0.5,0.1-0.7,0.4-0.4,0.9
	c0.3,0.4,0.7,0.7,0.2,1.2c-0.2,0.2,0.2,0.3,0.3,0.3c0.4,0.1,1.1,0,1.1,0.3c0,0.4-0.7,0.3-1,0.5c-0.2,0.2-0.5,0.3-0.7,0.6
	c-0.5,0.7-0.4,1.4,0.5,1.8c0.2,0.1,0.5,0.1,0.7,0.3c0.1,0.1,0.4,0.2,0.3,0.4c-0.1,0.2-0.3,0.1-0.5,0.1c-0.3-0.1-0.5-0.3-0.7-0.5
	c-0.4-0.3-0.8-0.6-1.3-0.3c-0.5,0.3-0.8,1.3-0.6,1.8c0.1,0.3,0.4,0.6,0.4,1.2c-2.1-1.6-3.6-0.5-5,1c-0.4-0.7-1-1-1.7-1.2
	c-0.4-0.1-0.7,0-0.7,0.4c0,0.1,0,0.4-0.2,0.4c-0.2,0-0.2-0.2-0.2-0.3c-0.5-0.9-0.5-0.9-1.5-0.5c-0.1,0-0.1,0.1-0.2,0.1
	c-0.1,0-0.9-1.2-0.9-1.3c0.1-0.5,0-0.8-0.6-0.9c-0.4,0-1-0.1-0.8-0.9c0.1-0.3-0.3-0.4-0.6-0.5c-0.2-0.1-0.5-0.1-0.4-0.4
	c0.3-1.2-0.4-2.1-0.7-3.1c-0.1-0.3-0.2-0.6,0-0.9c0.4-0.6,0.8-1.2,0.5-2c-0.1-0.3,0.1-0.4,0.3-0.3c0.5,0.2,0.6-0.2,0.6-0.5
	c0.1-0.7,0.3-1.1,0.9-1.6c0.6-0.5,1.7-0.6,2-1.5c0.1-0.3,0.5-0.3,0.8-0.1c1.2,0.4,1.8,0.1,2.4-1c0.1-0.2,0.2-0.4,0.5-0.3
	c0.2,0.1,0.1,0.3,0,0.4c-0.2,0.2-0.4,0.3-0.1,0.5c0.3,0.2,0.5,0.5,0.9,0.3c0.6-0.3,0.8-0.2,1,0.5c0.1,0.5,0.7,0.5,1.1,0.1
	c0.2-0.2,0.3-0.6,0.7-0.4c-0.2,0.2-0.3,0.3-0.4,0.5c-0.2,0.4-0.1,0.6,0.3,0.8c0.7,0.2,1.4,0.1,2,0.4c0.1,0.1,0.4,0,0.4,0.2
	c0,0.2-0.2,0.3-0.4,0.4c-0.7,0.2-0.6,0.5-0.2,1c0.2,0.2,0.4,0.5,0.6,0.8c0.5,0.9,1.3,1.3,2.3,1C651.4,840.1,651.6,840.2,651.7,840.3
	z M584.5,824.3c-0.1,0-0.2,0-0.4-0.1c-0.4-0.1-0.6-0.4-0.4-0.8c0.1-0.1,0.2-0.2,0.3-0.3c0.1-0.2,0.5-0.2,0.4-0.3
	c0-0.2-0.4,0-0.6-0.1c-0.1,0-0.2,0-0.2-0.1c0.2-0.3-0.1-0.4-0.2-0.6c-0.2-0.2-0.2-0.4,0.1-0.5c0.2-0.1,0.3-0.1,0.5-0.1
	c0.1,0,0.2,0,0.3-0.1c0,0,0-0.1,0-0.1c-0.1,0-0.2,0-0.3,0c-0.5,0.2-0.9,0.1-1.2-0.3c-0.1-0.1-0.2-0.2-0.4-0.3
	c-0.3-0.2-0.3-0.3,0-0.5c0.1,0,0.2-0.1,0.1-0.2c0-0.1-0.1-0.1-0.2-0.1c-0.3-0.1-0.7,0-1,0c-0.2,0-0.3-0.1-0.2-0.3
	c0-0.1,0.1-0.2,0.1-0.3c-0.2,0-0.2,0.2-0.3,0.3c-0.2,0.2-0.4,0.3-0.5,0.1c-0.1-0.3-0.3-0.3-0.5-0.1c-0.2,0.2-0.3,0-0.5,0
	c-0.2-0.1-0.1-0.2,0-0.3c0.1-0.1,0.1-0.2,0-0.2c-0.1,0-0.2,0.1-0.2,0.2c-0.1,0.6-0.4,0.8-1.1,0.7c-0.2,0-0.3,0-0.4,0.2
	c-0.1,0.5-0.5,0.6-0.8,0.9c-0.2,0.3-0.3,0.5-0.3,0.9c0,0.2,0,0.3-0.2,0.3c-0.1,0-0.2,0.1-0.1,0.2c0.2,0.3,0.1,0.7,0,1
	c-0.1,0.2,0,0.3,0.1,0.4c0.3,0.5,0.7,0.8,0.7,1.4c0,0.2,0.1,0.1,0.2,0.2c0.1,0,0.3,0,0.3,0.2c0,0.4,0.3,0.4,0.5,0.3
	c0.3,0,0.4,0.1,0.4,0.4c0,0.1,0.5,0.6,0.6,0.5c0,0,0.1,0,0.1-0.1c0.4-0.3,0.5-0.3,0.8,0.1c0,0,0.1,0.1,0.1,0.1
	c0.1,0,0.1-0.1,0.1-0.2c0-0.2,0.1-0.3,0.3-0.3c0.4,0,0.7,0.1,1,0.4c0.5-0.9,1.1-1.5,2.3-1c-0.1-0.3-0.2-0.4-0.3-0.5
	c-0.2-0.2-0.1-0.7,0.1-0.9c0.2-0.2,0.4-0.1,0.7,0c0.1,0.1,0.2,0.2,0.4,0.2c0.1,0,0.2,0,0.2-0.1C584.7,824.4,584.6,824.3,584.5,824.3
	z M75.2,579c-6.8-2.9-12.2-0.7-13.9,5.6c-1.5,5.4-0.4,8.9,3.7,12.2c6.7,5.4,13.6,3.9,16.6-3.5C84.2,587.2,81.8,581.9,75.2,579z
	 M127,570.9c0.7-2.2,0.3-3-1.7-4.1c-1.4-0.7-3-1.1-3.6-0.9c-2,0.9-2.5,5.5-0.8,7.3C123.2,575.6,126,574.5,127,570.9z M102.9,613.8
	c-0.3,0.1-0.3,0.9,0,1.6c0.3,0.7,1.2,1.1,2,0.7c0.8-0.3,0.8-1.1,0-1.6C104.1,614,103.2,613.7,102.9,613.8z M171.3,634.2
	c0.7-0.3,1.1-1.2,0.8-1.9c-0.3-0.7-1.2-1.1-1.9-0.8c-0.7,0.3-1.1,1.2-0.8,1.9C169.7,634.2,170.6,634.5,171.3,634.2z M151.7,653.7
	c1.6-3.2,0.6-6.1-2.1-6.1c-6.1,0.1-7.7,5.3-2.3,7.5C149.8,656.1,150.5,655.9,151.7,653.7z M171.4,645.3c0.7-0.3,1-1.1,0.7-1.9
	c-0.3-0.7-1.5-0.9-2.7-0.5c-1.2,0.5-1.5,1.3-0.7,1.9C169.5,645.4,170.7,645.6,171.4,645.3z M177.6,645.1c-1.4-0.7-3-0.7-3.5,0.1
	c-0.6,0.8,0.2,1.9,2,2.6C179.8,649.3,181.1,647,177.6,645.1z M164.7,662c-1.1-1.1-2.1-1.5-2.4-1c-0.2,0.6,0.6,1.5,1.9,2
	C166.1,663.9,166.2,663.6,164.7,662z M141.9,672.4c-1.3,0.9-1.9,2.1-1.4,2.7c1.3,1.8,4.1,0.2,3.9-2.2
	C144.3,671.6,143.4,671.4,141.9,672.4z M202.1,655.8c0.3-0.6-0.3-1.7-1.3-2.4c-1.4-1-1.8-0.9-1.6,0.7
	C199.3,656.3,201.4,657.5,202.1,655.8z M156.9,676.7c0.9-1.8,0.7-2.6-1.1-3.5c-3.5-1.8-7.6,0.5-6.3,3.5
	C150.9,679.9,155.3,679.9,156.9,676.7z M176.7,681c-2.9-2.3-5.7-1.4-6.8,2.3c-1.1,3.5,1.8,6.4,5,5.1
	C178.6,686.8,179.5,683.3,176.7,681z M226.6,664.5c0.3-0.6-0.3-1.9-1.2-2.9c-1.8-1.8-6.2-0.8-5.3,1.2
	C220.8,664.5,226,665.8,226.6,664.5z M161.7,688.6c-3.7-1.5-3.9-1.5-6.5,1.8c-2.6,3.2-1.8,5,4.1,9.2c4,2.9,4.9,3,5.8,0.7
	C166.9,695.8,165.2,690.1,161.7,688.6z M137.4,711c-3.2,2.2-1.7,6.8,1.7,5.3c1.9-0.8,2.4-2.1,1.6-4C139.9,710.4,138.9,710,137.4,711
	z M135.8,647.4c-3.6-5.7-8-8.4-13.8-8.5c-3.6-0.1-5.8-0.8-5.2-1.7c1.9-2.6-0.9-6.5-5.5-7.8c-2.4-0.7-4.2-1.7-4-2.3
	c0.3-0.6-0.3-1.9-1.2-2.9c-0.9-1-2.6-1.3-3.8-0.9c-3,1.3-2.5,5.9,0.8,6.7c2.3,0.5,2.5,1,1.6,3.1c-1.5,3.5,1.1,9,4.4,9.3
	c2.5,0.3,2.5,0.9,0.3,5.3c-4.8,9.7,4.4,20.8,15.8,19c4-0.6,6.2-1.7,8.2-4.2C136.4,659,137.7,650.4,135.8,647.4z M197.9,739.6
	c-2.3-1.7-3.9-1-4.9,2.1c-0.5,1.8,0.1,3,2,3.6C198.1,746.3,200.5,741.6,197.9,739.6z M236.1,767.9c3.5-0.9,3.5-2.7-0.1-4.1
	c-2.9-1.2-5,0.5-3.9,3.1C232.5,767.9,234.3,768.4,236.1,767.9z M204.3,747.3c-0.9,3,0.7,4.7,3.9,3.8c1.2-0.3,2.1-1.8,2-3.3
	C209.9,744.3,205.4,743.9,204.3,747.3z M296.1,739c-1.1,0.5-1.8,1.5-1.5,2.2c0.3,0.7,1.5,1,2.6,0.5c1.1-0.5,1.8-1.5,1.5-2.2
	C298.4,738.8,297.2,738.5,296.1,739z M212.5,776.4c-0.7,1.8-0.4,2.4,1.5,2.7c3.2,0.5,3.6-0.6,1.3-3.1
	C213.9,774.5,213.3,774.6,212.5,776.4z M220.8,753.2c-1.2-0.4-2.2,0.1-2.2,1.2c0.1,2.9,3,4.2,3.7,1.7
	C222.7,754.9,222,753.6,220.8,753.2z M215.9,754.8c0.3,0.1,0.8-0.4,1-1.2c0.2-0.8-0.2-1.6-1.1-1.9c-0.8-0.3-1.3,0.3-1,1.2
	C215.1,753.9,215.6,754.7,215.9,754.8z M201.9,785.9c-1.1,0.5-1.6,1.8-1.2,2.9c0.5,1.1,1.8,1.6,2.9,1.2c1.1-0.5,1.6-1.8,1.2-2.9
	C204.3,785.9,203,785.4,201.9,785.9z M259.7,775.8c1.2-3.5,1.1-3.8-2.4-6.2c-2-1.4-4.3-2.2-5.1-1.9c-3.2,1.4-5.4,5.8-4.2,8.7
	C250.6,782.6,257.4,782.3,259.7,775.8z M218.8,784.5c-6.7-2.7-10.8,3.4-5.3,7.8c1.8,1.4,3.6,1.5,6,0.1
	C223.5,790.1,223.2,786.3,218.8,784.5z M329,752.8c-1.5,2.5-1.4,3.2,0.9,4.4c1.5,0.8,3.5,1.1,4.4,0.7c2.5-1.1,3.6-5.9,1.7-7.9
	C334,747.9,331.3,748.9,329,752.8z M329,761.1c-0.8-0.3-1.3,0.2-1.3,1.2c0.1,1,1.1,2.2,2.3,2.6c1.6,0.6,1.9,0.3,1.3-1.2
	C330.8,762.6,329.7,761.4,329,761.1z M270.8,824.3c-3.7-1.6-5.2-3.4-6.6-7.6c-1.3-3.9-2.4-5.3-3.7-4.7c-1,0.4-1.6,1.6-1.3,2.5
	c0.3,1,1,3.3,1.6,5.2c0.6,1.9-0.3,5.9-1.9,9c-2.5,4.7-2.6,6.5-0.6,11.1c4.7,11,14.8,10.2,18.4-1.6
	C278.7,831.5,276.9,827.1,270.8,824.3z M233.9,829.6c-6.2-2.5-10.4,0.4-11,7.6c-0.7,8.6,11.7,10.4,15.4,2.3
	C240.3,835.2,238.7,831.6,233.9,829.6z M359,831.6c-2.1-1.8-4-2.8-4.3-2.3c-0.2,0.5,1.8,2.8,4.5,5c2.7,2.2,4.6,3.2,4.3,2.3
	C363.2,835.6,361.2,833.3,359,831.6z M369.9,840.8c-1.8-1.6-3.2-2.3-3.1-1.4c0.1,1.9,5.5,6.5,6,5.2
	C373,844.1,371.7,842.4,369.9,840.8z M91,545.6c-2.3-1.7-3.9-1-4.9,2.1c-0.5,1.8,0.1,3,2,3.6C91.2,552.2,93.6,547.6,91,545.6z
	 M103.2,553.8c-0.2-3.5-4.8-4-5.8-0.5c-0.9,3,0.7,4.7,3.9,3.8C102.5,556.8,103.3,555.3,103.2,553.8z M115.4,562.1
	c0.4-1.2-0.3-2.5-1.5-2.9c-1.2-0.4-2.2,0.1-2.2,1.2C111.8,563.2,114.7,564.6,115.4,562.1z M109,560.8c0.3,0.1,0.8-0.4,1-1.2
	c0.2-0.8-0.2-1.6-1.1-1.9c-0.8-0.3-1.3,0.3-1,1.2C108.2,559.8,108.7,560.7,109,560.8z M545.2,40.9c0.9-3.1,0.4-4.2-2.4-5.7
	c-2-1-4.2-1.6-5-1.2c-2.8,1.2-3.5,7.7-1.1,10.3C539.9,47.4,543.7,45.9,545.2,40.9z M528.8,28.4c0.5-1.7-0.4-3.6-2.2-4.1
	c-1.7-0.5-3.1,0.2-3.1,1.6C523.7,30,527.8,31.9,528.8,28.4z M519.8,26.5c0.5,0.1,1.1-0.6,1.5-1.7c0.3-1.1-0.3-2.3-1.5-2.6
	c-1.2-0.4-1.8,0.4-1.5,1.7C518.7,25.2,519.3,26.4,519.8,26.5z M748.1,294.3c2.7,0.5,5.7,2,6.5,3.2c0.8,1.3,1.8,2.8,2.3,3.5
	s1.4,0.9,2.2,0.5c1-0.5,0.8-1.8-0.9-4.5c-1.8-2.9-2-4.7-1.1-7.7c1.6-5-0.1-8.3-5.4-10.3c-9-3.5-14.9,2.2-10.7,10.4
	C742.8,292.7,743.9,293.6,748.1,294.3z M68.2,34.5c0.6-0.1,1.6-1.3,2.3-2.7c1-2,0.9-3-0.8-4.5c-2.7-2.6-5.3-2-5.8,1.2
	C63.5,31,66.2,34.8,68.2,34.5z M49.8,66c-1.1,1.5-1,3,0.3,4.2c2.3,2.2,3.9,1.9,4.8-0.8C56,66.3,51.7,63.5,49.8,66z M57,53.6
	c-2.9,1-3.3,3.3-1,5.5c2.6,2.5,5.8-0.4,4.2-3.7C59.5,54,58.1,53.2,57,53.6z M65.6,44.9c0.7-1,0.6-2.5-0.3-3.4c-1.9-1.8-3.4,1-2,3.6
	C63.9,45.9,64.9,45.9,65.6,44.9z M61.1,46.1c-0.2,0.3-0.1,1.3,0.1,2.2c0.3,0.9,0.9,1.2,1.4,0.5c0.5-0.7,0.4-1.7-0.1-2.2
	C61.9,46.1,61.3,45.9,61.1,46.1z M722,274.5c0.5,0,0.9-0.3,0.9-0.7c0-0.3-0.5-0.6-1-0.5c-0.5,0-0.9,0.3-0.9,0.7
	C721,274.3,721.5,274.5,722,274.5z M731.6,263.3c1.6,1,2.8,0.8,3.2-0.3c0.3-1.1-1-2.6-2.2-2.5c-0.4,0-1.1,0.5-1.5,1.1
	C730.5,262.4,730.5,262.7,731.6,263.3z M729.6,258.7c-0.3,0.4-0.5,1-0.3,1.4c0.2,0.4,0.5,0.5,0.7,0.2c0.2-0.3,0.4-0.9,0.3-1.4
	C730.3,258.2,730.1,258.2,729.6,258.7z M727.6,229c0.5-1,0.8-2.2,0.7-2.7c0-0.4-0.6,0.3-1.2,1.6c-0.6,1.3-0.9,2.5-0.7,2.7
	C726.6,230.8,727.1,230,727.6,229z M729.9,223.6c0.4-0.9,0.5-1.8,0.3-2c-0.5-0.4-1.6,2.3-1.2,3C729.1,225,729.5,224.5,729.9,223.6z
	 M738.8,500.8c-0.7-1.1-1.5-1.6-2.6-1.6c0.7-3.3,1.5-6.6,2.5-9.9c0.8-0.4,1-1,0.7-1.8c0.2-1,0.5-2,0.7-3c0.8-0.5,1-1.2,0.7-2
	c0.8-1.5,1.3-3,1.1-4.8c0.8-0.5,0.8-1.2,0.5-2c0.5-0.5,0.7-1.1,0.5-1.8c0.7-0.6,0.9-1.2,0.4-2c0.6-0.5,0.8-1.1,0.5-1.9
	c0.7-0.6,0.5-1.3,0.2-2c0.7-1.6,0.4-3.2,0.2-4.9c1.4-6,2.9-12.1,2.9-18.3c0.1-1.3,0.1-2.6,0.2-3.9c-0.1-6-0.8-12-0.6-18
	c0.2-4.4,1-9.1-2.5-12.8c0-2.3-0.1-4.7-0.1-7c0.5-1.9,0.5-3.8-0.1-5.8c0.4-0.9,0.4-1.8-0.1-2.7c0.8-5.7-1.2-11.1-1.7-16.7
	c-0.6-6.4-1-13-3.7-19.1c-0.2-0.7-0.3-1.4-0.5-2.1c-1.2-10.9-3.1-21.6-7.3-31.7c-0.1-0.7-0.1-1.3-0.2-2c0.4-1.4,0.1-2.6-1.3-3.3
	c-0.1-0.5-0.3-1-0.4-1.5c-0.8-2.6-1.3-5.3-2.7-7.7c-0.1-0.6-0.2-1.3-0.3-1.9c-2.8-12.4-9.2-23.4-14.4-34.8
	c-4.2-9.1-8.6-18.4-14.5-26.6c0.7-1.6,0.2-3.1-1.4-4.7c-1.1-1.1-2.3-1.7-3.3-1.9c-5-7.5-9.3-15.5-15.2-22.4
	c-6.4-7.4-12.8-14.7-19.9-21.5c-2-1.9-4-3.6-4.1-6.7c-0.1-1.7-1-2.7-3.3-2.4c-4,0.6-6.1-1.2-5.2-6.6c-2.5,3.7-4.1,2.4-5.8,0.6
	c-0.4-0.4-0.9-1.1-1.3-1.1c-5,0.2-5,0.3-5.8-4.3c-0.3-1.8-2.5-3.6-2.8-3c-2.2,4.6-4.4-0.3-7,0.2c4.1,4.4,10.5,6.4,12.3,13.9
	c-2.8-2-4.6-4.4-7.5-1.6c-0.6,0.6-4.5,0.3-5.5-1.8c-1.3-2.4-3.6-2.9-5.3-4.3c-2.7-2.3-6.1-2-8.9-3.5c-9.9-5.2-18.9-12.2-30.1-14.7
	c-0.6-0.1-1.4,0.2-1.6-0.6c-1.1-4-6.1-3.2-7.9-6.4c-0.5-0.9-1.6-1-2.3,0.1c-1.3,1.8,0.9,1.4,1.4,2c1.2,1.5,4.2,0.5,4.8,3.2
	c0.7,2.9,3,4.2,5.4,5.6c9.8,5.8,20.4,10.1,29.1,17.6c5.1,4.5,9.5,9.8,15.2,13.8c1.6,1.1,4.9,2,4.1,4.1c-1.2,3.1,0.9,3.6,2.3,4.8
	c9.4,8.3,16.9,18.1,23.1,29c4.3,7.5,8.7,14.9,13.9,21.8c0.3,4,4,6.9,4.1,12.3c-3.2-5-4.7-9.6-7.7-13.3c-3-4.6-6.3-8.7-10.5-12.7
	c-6.8-6.3-13.1-13.3-19.4-20.3c-10.5-11.5-23.1-20.3-35.5-29.2c-10-7.2-21-13-31.8-19.1c-12.7-7.2-26.3-12.5-40-17.6
	c-8.6-3.2-17.7-5-26.7-7.2c-12.2-2.9-24.3-6.5-36.7-7.9c-17.2-1.9-34.6-2.1-51.8,0c-2.2,0.3-4.5,0.9-6.4,1.9
	c-1.7,0.9-3.1,0.8-4.9,0.8c-4.6,0-10.1,0.2-12.5,4.3c-1.6,2.8-3.3,4-5.9,4.6c-2.1,0.5-4,1.5-5.9,2.5c1.4,1.3,3.4-0.4,5,1.9
	c-6.7,1.4-12.1,5.1-18.2,7.4c-10.2,3.9-20.2,8.6-30.4,12c-14,4.7-26.4,12.5-39.9,18.2c-7.3,3.1-13.5,9.3-19.3,15
	c-5.1,5-11,9.2-15.9,14.6c-0.6,0.7-1.4,2.6-2.5,1.3c-2.1-2.5-2.8-0.1-3.5,0.8c-4.5,5.6-8.5,11.6-13.8,16.6c-0.5,0.5-0.9,1.3,1,3
	c4.2-4.5,8.3-9,12.5-13.4c0.3,0.2,0.7,0.5,1,0.7c-2.5,3.6-3.7,7.8-6.8,11.1c-4.8,5.1-9.6,10.1-14.1,15.6c-6.4,7.9-9.4,17.5-14.6,26
	c-3.8,6.2-6.1,13.7-10,20.1c-2,3.2-3.4,6.7-4.5,10.5c-1.1,4.4-0.3,9.5-3.9,13.1c-0.9,0.9-0.6,3.6-2.5,2.8c-1.9-0.8-0.2-2.5,0.1-3.8
	c1.1-5,5-10.1,4.3-14.5c-1.1-7.6,2.5-13.1,4.6-19.4c2.5-7.2,7.8-12.5,11.3-19.1c4.4-8.2,10.5-15.5,15.9-23.2c-0.4-0.3-0.7-0.7-1.1-1
	c-4.9,5.4-10,10.7-14.3,16.7c-4.8,6.7-8.1,14.5-13.5,20.9c-1.5-0.5-0.5-1.9-1.4-2.8c-2.9,3.2-4.9,6.8-6.3,11.9
	c3.7-2.5,3.5-6.6,6.9-8.3c0,0.9,0.2,1.7,0,2.2c-3,5.8-6.1,11.6-9.1,17.4c-0.3,0.6-0.9,1.1-1.5,0.5c-2.1-2.1-2.2,0.3-2.9,1.3
	c-3.6,5-5.4,10.9-7.2,18.1c-1.1-7.6,0.2-13.7,4-20.5c1.7-3.1,1.9-6.1,0.7-10.6c-2.8,5.9-5,10.7-7.3,15.4c-0.1-6.6,2.5-12.1,5.2-17.6
	c-2.3-0.5-2.4,1.5-3,2.8c-1.6,3.8-3,7.6-4.7,11.3c-5.2,11.6-7.7,24.1-12.2,35.9c-1.6,4.2-1.9,9-5.5,12.4c1.1-28.2,15-52.6,22.8-79.1
	c-4.8,3.7-9.1,7.8-12.4,13.8c-1.4-6.1,5.2-10.2,1.9-15.9c-2.3,6.3-4.7,12.3-9.1,17.3c0.3-3.5-3-6.4-1.3-9.9c2-4.2,4-8.4,5.7-12.6
	c1.5-3.6,2.5-7.4,1.8-12.4c-3.6,6.8-7.2,12.5-9.8,18.6c-1.8,4.2-1.7,9.2-6.2,12c-0.5,0.3,1.3,2.1-0.7,1.6c-0.7-0.2-1.5-1.9-0.9-2.5
	c2.5-2.4,2.2-6.3,4.2-8.4c2.9-3.1,2.5-7.2,4.6-10.5c0.9-1.4,2.5-4.4,1.2-7.2c-4.1,1.1-3,5-4.3,7.5c-6.6,12.2-10.2,25.5-15.5,38.2
	c-0.8,2-1.4,4.1-1.1,6.5c0.8,5.8-1.8,10.8-5.1,15.2c-0.9,1.2-1.8,2.1-2.4,3.6c-2.5,7-2.4,14.5-5.2,21.5c-1,2.6-3.3,4.5-3.4,7.3
	c-0.2,10.9-4.3,21.3-3.9,32.4c0.4,9.8-1.5,19.6-1.2,29.4c0.5,15.6,0.1,31.4,4.9,46.6c1.9,5.9,2.6,12.2,6.3,17.5
	c0.1,0.6,0.2,1.3,0.3,1.9c-0.4,1-0.2,1.8,0.7,2.4c0.1,0.4,0.2,0.8,0.3,1.2c0.1,0.4,0.1,0.8,0.2,1.2c-0.2,1.1-0.1,2.1,0.6,3
	c-0.4,0.8-0.3,1.6,0.6,2c0.2,1.6,0,3.3,1,4.8c-0.3,0.9,0.1,1.5,0.8,2c-0.1,4.6,2.1,8.5,3.5,12.7c0.5,1.5,1.6,2.8-0.2,4.2
	c-1.7-3.4-3.2-6.9-3.9-10.7c-0.8-4.4-3.7-8-6.1-11.8c-1.9-3-2.1-7-3.2-10.4c-5.1-16.5-7.5-33.4-8.7-50.4c-0.5-7.6-1.6-15.2-2.3-22.7
	c-0.3-3.9,0.2-8.3-1.6-12.2c-0.5,5.6-0.5,11.2-0.5,16.7c0.1,15.3-0.6,30.7,2,45.8c1.2,6.9-0.2,14.9,5.9,20.5c0.7,0.6,1.1,1.9,0,2.5
	c-2.1,1.1-1.3,2.6-0.8,4.1c2.1,7.2,4,14.5,6.5,21.6c1.5,4.3,3,8.7,5.8,12.4c-0.2,0.7,0.1,1,0.7,1.2c0,0.6-0.2,1.3,0.6,1.7
	c1.2,2.9,2.3,5.8,3.5,8.7c0.7,1.3,1.3,2.6,2,3.9c2,6.8,6.2,12.6,9.2,19c1.7,3.6,3.6,7.5,7,10.1c6.1,10.6,13.1,20.6,21,29.8
	c8.9,10.4,18.7,19.9,28.8,29.2c-1.7-0.4-2.7,0.2-4.4,2c-3.6,3.8-4,5.7-2.1,10.2c1.1,2.7,2.8,3.8,6.3,4.1c4.4,0.3,5,0.1,6.5-3.1
	c1.1-2.3,1.6-4.3,1.4-6.1c3.6,3.3,7.2,6.5,10.8,9.8c6.2,5.7,13.7,9.8,18,17.7c1.7,3.3,4.7,6.6,8,8.1c8.2,3.7,14.1,10.6,22,14.7
	c4.7,2.4,8.6,6.2,13.1,9c7.6,4.8,14.4,11.1,23.6,13c0.5,0.7,1.2,0.8,2,0.7c1.4,1.2,3.1,1.4,4.9,1.2c0.7,0.2,1.3,0.3,2,0.5
	c2.4,1.9,5,1.3,7.7,0.9c1.6,0.4,3.2,0.5,4.8-0.1c7.9-0.4,16.4,1.3,22.8-5.3c0.4-0.4,1.6-0.3,2.3-0.1c2.5,0.6,4.7-0.3,6.8-1.5
	c0.4,0.1,0.8,0.1,1.2,0.2c1.1,3,2.8,3.4,5,1l0.1,0c4.3-1.1,9.5,0.1,12.7-4.3c0.2-0.1,0.3-0.3,0.3-0.5c1-0.9,2-1.7,2.9-2.6
	c0.4-0.1,0.7-0.3,1.1-0.4c1.5,0,2.5-0.7,3.1-2.1c1-0.2,1.5-0.8,1.8-1.7c2.2-0.1,3.6-1.5,4.3-3.3c1.1-2.5,1.9-5.1,2.9-7.7
	c2.1-1.1,4.7-1.7,4.9-4.7c1.4-1.8,3.2-3.5,3.5-6c1.6-0.8,1.8-2.3,1.9-3.9c1.5-5.1,4.3-10.1,2.2-15.7c0.4-1.7,0.2-3.4-0.9-4.9
	c-0.2-0.9-0.3-1.8-0.5-2.8c-0.1-1.3,0-4.2-0.8-3.5c-2.9,2.5-2.5-1.1-3.7-1.5c-1.1-2.7-1.8-5.6-4.2-7.6c-0.3-2-1.4-3.5-2.9-4.8
	c-0.7-2-1.6-3.9-3.6-5.1c-1-1.2-2-2.4-3-3.5c-0.4-1.9-1.9-2.7-3.5-3.5c-0.1-1-0.6-1.8-1.7-1.9c-0.3-1-0.9-1.6-1.9-1.8
	c-2.2-2.9-5.2-4.8-8.4-6.4c-2.4-3.3-5.8-4.8-9.8-5.2c-6.5-0.6-13.3,0.3-18.7-4.6c-0.9-0.8-2.3-1.1-3.5-1.6c-0.8-0.3-2-0.3-2,0.5
	c-0.3,8.4-4.6,2-6.7,1.6c-3.7-0.8-7.1-2.8-11-0.7c-0.7-0.1-1.3-0.3-2-0.4c-0.4-0.9-1.1-1.3-2.1-1.3c-0.8-0.8-1.6-1.5-2.4-2.3
	c-4.8-4.4-12.2-3.3-16.8-8.1c0,0-0.4,0.3-0.8,0.6c1.3,3.6,5.1,4.5,7.6,6.9c0.8,1.2,3,1.3,2.8,3.6c-5.1-0.1-8.4-4.6-13.1-5.8
	c-1-1.6-2.3-2.5-4.2-2.7l-0.2-0.3l-0.3,0c-0.6-1.3-1.8-2-3.2-2.3c-1-0.3-2-0.7-2.9-1c-0.3-0.8-0.9-1.1-1.8-1c-1.2-3-4-1.6-6-2.2
	c-1-1.1-2.5-2.4-3.7-1.8c-5.1,2.8-6.4-1.7-7.2-4.4c-1.3-4.4-3.1-3.5-5.7-1.7l-0.3-0.1c-0.5-1.3-1.1-2.6-2.5-3.1
	c-3.7-4-7.4-8-11.1-12c-3.3-6.5-6.6-13.1-10-19.6c-0.5-1-1.3-2.5-2.4-1.2c-2.7,3.2-3.3,0-4.4-1.3c-3.8-4.5-3.4-11.7-9.3-14.9
	c-0.3-0.2-0.5-0.8-0.6-1.3c-1.6-7.5-3.1-15.1-6-22.3c-0.3-0.7-0.7-1.9,1.3-2.5c1.1,11,10.5,17.1,15.5,26c4.7,8.3,11.2,16.1,19,22.2
	c-0.8-3-3-4.8-5-6.8c-4.9-4.9-9.3-10.2-11.2-17.1c1.6-0.6,3.6-1,1.2-3.3c-1.3-1.2-2.1-2.8-3.3-4.1c-1.4-1.6-0.5-2.7,0.6-3.7
	c1.7-1.4,2.5,0.6,2.9,1.3c4.4,8.3,11,15.1,16.3,22.7c4.9,7,10.5,13.8,19.6,15.9c4.7,1.1,9.2,2.5,13.3,5.2c1.3,0.9,3.5,2.5,4.7,0.6
	c1.5-2.4-1.3-3.2-2.8-4.1c-13-8.1-24.3-18.1-33.4-30.4c-2.7-3.7-4.8-7.5-4.6-10.3c2.2,9.6,11.2,8.7,17.4,12.1
	c0.4-3.6-2.3-5.3-4.7-6.7c-1.3-0.8-3.2-1.7-2.4-2.9c2.1-3.5-0.6-4.8-2.4-6.5c-5.2-5-9.5-10.7-12.7-17.2c-3.1-6.3-6.4-12.5-9.6-18.8
	c-0.4-2.8-0.8-5.6-2.7-7.8c-2.6-8.7-3.2-17.7-4.7-26.6c-0.6-3.9-2-7.8-1.5-11.8c0.1-0.8-0.4-2.1,1.2-2.1c1.2,0,0.7,1.2,1,1.8
	c3.7,7.1,3.2,15.2,5.6,22.6c1.4,4.3,3,8.4,4.6,12.9c1.5-5.7,0.5-10.3-2.8-14.5c-0.4-0.5-0.2-1.6-0.5-2.3c-2-4.4-1.1-9.2-1.7-13.8
	c-1.7-12.6-2.1-25.2-2.5-37.9c0-1,0.1-2.1,0.2-3.1c4.4-2.4,5.3-6.9,1.6-9.9c-2.8-2.2-5.5-2.3-7.4-0.5c1.4-4.2-0.4-8.6,0.8-12.6
	c0.2-0.6-0.3-1.8-1.3-0.7c-0.6,0.6-0.8,1.4-1.7,0.4c-0.6-0.8,0-1.3,0.4-2c1.7-3.1,3.8-5.9,4.6-9.7c1-5,1.9-10.1,3.3-15.2
	c2.6,1.6,0.9,3.9,1.5,5.6c0.3-0.7,0.2-1.4,0.4-1.9c1.3-2.4,3.9-4.5-0.6-6.6c-1.3-0.6-0.9-4.1,1.3-4.7c2.4-0.6,2.9-1.7,3.1-3.7
	c0.1-0.9,0.8-2.4,1.3-2.4c5.2-0.4,5-5.5,5-7.9c0-5.6,3.3-8.8,5.6-13.1c1.8,1.5,1.1,4.6,3.2,4.4c2-0.1,2.3-2.7,3.2-4.3
	c1.3-2.3,1.9-4.8,3.7-7.1c3.6-4.4,6.8-9.4,9-14.6c3.1-7.3,2.7-7.5,9.2-12.5c0.2-0.2,0.4-0.6,0.3-0.8c-0.2-3.3-0.7-6.9,4.7-5.9
	c1,0.2,0.6-1.6,0.9-2.4c1.4-3.8,3-8.3,7.4-8.7c4.5-0.4,5.5-2.8,6.3-6.2c0.6-2.4,2-4.3,3.8-5.9c1.9-1.7,3.9-3.4,5.7-5.2
	c0.8-0.8,1.6-1.9,0.9-3c-0.6-1.1-1.8-0.4-2.6-0.1c-3.3,0.9-6.6,1.7-7.6,5.7c-0.3,1.3-1.2,2.4-2.6,2.6c-0.5,0.1-1.4-0.4-1.6-0.8
	c-0.8-1.6,0.8-2.2,1.6-3.1c1-1.2,2.2-2.3,3.3-3.5c4.1-4.3,6.9-9.3,8.3-16.1c-2.3,1.6-2.6,3.4-3.3,4.9c-0.7,1.5-1.4,3.7-3.6,3.4
	c-2.3-0.3,0.6-2.9-1.3-3.8c-2.4,0.9-2.8,3.6-4.7,5c-11.3,8.1-19.6,19.3-29.3,29c-1.1,1.1-2.2,2.6-2.6,4c-2.9,9.9-10.3,16.8-15.9,25
	c-2.4,3.4-5.8,6.1-6.3,10.7c-0.1,0.7-0.9,2.5-3.2,1.8c3.4-4.4,4.3-9.8,7.9-14c2.6-3,4.7-6.5,7-9.8c0.5-0.8,2.2-1.8,0.7-2.7
	c-2.7-1.7-0.5-2.8,0.1-4.2c1.8-4,6.5-5.1,8.7-8.7c4.4-7.3,10.5-13.1,16.2-19.3c6.3-6.9,13.1-13.3,19.2-20.3
	c4.5-5.3,9.2-10.3,14.6-14.6c6.6-5.3,14.5-8.3,21.7-12.4c8.1-4.5,16.6-8.3,24.4-13.2c6.9-4.4,15-5.3,22.2-8.7
	c2.6-1.2,5.9-3.2,9.9-1.3c-0.4,0.8-1.1,1.1-1.9,1.4c-2.8,1.2-5.6,2.4-8.4,3.5c-1.4,0.6-3.2,1.1-2.6,2.8c0.6,1.6,2.3,0.1,3.4,0.3
	c1,0.2,2.3-1.9,2.7-0.1c0.9,3.6,2.9,1.4,4.3,1c2.5-0.7,4.9-1.8,7.7,0.1c-18.9,7-38.1,13.3-54.3,28.2c3.9-0.6,5.8-2.4,7.8-3.8
	c2.6-1.9,5.2-5.4,7.9-5.6c6.3-0.5,11.5-3.6,17.2-5.4c2.5-0.8,5-2.3,7.8-1.6c-0.8,2.3-1.3,4.8-3.5,6.3c-1.3,0.9-0.6,2.4-0.6,3.6
	c0.1,1,0.6,1.3,1.6,1.3c7.9-0.4,15.1-3.7,22.7-5.6c6.6-1.6,13.1-3.9,19.7-5.3c2.8-0.6,5.7,1.3,8.8,0.3c1.6-0.5,4.5-2.7,4.9-0.4
	c0.5,2.6-3,1.7-4.8,2.1c-8.6,2.1-17.5,3.3-25.8,6.3c-11,4-20.9,10.8-31.1,16.5c-10.1,5.6-20.5,10.9-30.5,16.9
	c-0.9,0.6-1.8,1-2.4-0.2c-1.4-2.9-3-1-4.2-0.1c-3.2,2.4-6.7,4.3-10.1,6.5c-14.8,9.6-27.9,21.3-39.1,34.8
	c-8.5,10.2-16.8,20.6-22.9,32.5c-3.5,6.7-6.1,14-8.7,21.1c-3,8.1-5.4,16-5.9,24.5c-0.2,3.4,0,7.3-3.2,8.9c-4.4,2.3-1.2,4.5-0.7,6.8
	c1.4-5.2,5.4-9.1,5.7-14.9c0.3-4.3,1.6-9.1,4.1-12.5c3.9-5.3,6.9-10.7,7-17.2c0.1-3.6,2.9-4.9,4.3-7.4c1.9-3.4,0.6-7.1,2.6-10.6
	c3.1-5.5,8.6-9.3,10.1-15.8c0.8-3.9,2.8-3.7,4.7,0.1c4.8-9.5,11.9-16.3,18.9-23.1c2.1-2.1,5.1-3,7-5.5c2.4-3.3,5-6.6,9.2-8.1
	c1.4-0.5,2.7-2.4,3.3-4c1.3-3.1,1.2-3.2,4-2c0.9,0.4,1.4-0.2,2.1-0.7c5.8-4,10.8-9.1,18-11.2c4.2-1.2,8.1-3.9,11.9-6.1
	c13.1-7.5,27.3-12.7,41.1-18.4c11.7-4.8,24.5-6.4,37-8c13.7-1.7,27.5-2.2,41.3-0.6c1,0,2,0.1,3,0.1c2.4,1.4,5,1.7,7.7,1.4
	c0.7,0.1,1.4,0.2,2,0.3c5.1,0.9,10.2,1.9,15.4,2.8c0.9,0.6,1.8,0.9,2.9,0.6c1.8,1.2,3.8,1.3,5.8,1.6c1,1.1,2.5,1.1,3.7,1.5
	c0.4,1,1.2,1,2.1,0.6c6.1,2.4,12.2,4.8,18.2,7.2c0.9,0.7,1.9,1,3,0.8c2.2,0.2,3.5,3.7,6.4,1.8c0,0,0.1,0.1,0.1,0.1
	c-0.9,4.2,3.2,3.9,5.1,5.6c2.8,4.1,8.2,4.6,11.2,8.4c2.4,2.2,6.5,0.4,8.6,3.5l0,0c0,0,0,0.1,0,0.1c0.7,1.5,1.9,2.3,3.4,2.7
	c0.6,0.3,1.2,0.6,1.7,0.8c2.4,2.6,4,6,7.2,7.8c0.4-0.1,0.8-0.2,1.2-0.3c-0.4,0.1-0.8,0.1-1.2,0.3c3.7,3.9,7.4,7.7,11.1,11.6
	c0.1,1.1,0.4,2.1,1.8,2.2c3.9,3.6,4.8,9.6,9.7,12.4c1.6,3.6,3.8,6.7,6.5,9.5c0.4,1,0.7,2,1.1,2.9c-0.4,1.2-0.6,2.4,0.5,3.4
	c0.1,0.3,0.3,0.7,0.4,1c0,1.4,0.7,2.4,1.9,3c0.4,0.5,0.8,1.1,1.1,1.6c0,1.3,1.2,1.8,1.8,2.6c-0.1,2,1.1,3.5,2.2,5.1
	c0,0.8,0.3,1.5,1,1.9c0.8,2,1.2,4.2,2.6,5.9c-0.3,1.3-0.2,2.5,0.6,3.6c0.9,2.3,1,4.9,2.8,6.9c0.8,3.7,2,7.3,4.2,10.5
	c1.3,4.5,2.5,9.1,3.8,13.6c-0.4,0.9,0,1.5,0.7,2c1.8,6.8,2.8,13.8,5.8,20.2c-0.5,0.7-0.4,1.4,0.3,2c-0.3,8.8,1.5,17.4,2.3,26.1
	c0,1.6-0.6,3.4,0.6,4.8c0.4,14.2,0.1,28.4-0.2,42.6c-1,1.9-0.6,3.9-0.4,5.9c-1.4,8.2-2.8,16.4-4.7,24.4c-2.1,8.9-4.5,17.9-7.6,26.6
	c-5.5,15.8-14,29.9-22.4,44c-8.9,14.9-20.7,27.7-32.3,40.4c-5.4,5.8-10.7,12.2-17.6,16.3c-3.3,2-5.7,4.5-7.6,7.6
	c-2.9,0.4-5.1,1.8-7.2,3.9c-1.6,1.6-3.3,3.7-6.1,3.4c1.3,0.9-1.1,2,0,3.1c2.7-3.6,6.9-5,10.6-7.2c1.3-0.8,2.1-0.5,2.4,0.9
	c-2.4,1.2-4.2,3.2-6.3,4.9c-4,3.2-8.5,5.8-11.9,9.8c-1.3,0.6-2.2,1.6-2.9,2.8c-0.9,0.1-1.5,0.6-1.9,1.4c-2.1,0.9-4.6,1.2-5.9,3.4
	c-0.6,0.5-1.2,1-1.8,1.6c-2.5,0.9-4.6,2.5-6.5,4.4l-0.2,0.2c-7.4,3.9-14.7,7.7-22.1,11.6c0.2,0,0.3,0,0.5,0
	c5.7,0.7,9.8-3.6,14.7-4.9c1.3,1.5-1,2.8,0.3,4c5.9-3.6,10.9-8.3,15.8-13.1c0.4-0.3,0.9-0.5,1.3-0.8c1.1,0.4,1.7,0,2-1
	c0.6-0.3,1.2-0.5,1.8-0.8c1.3,0.6,2.8,2.5,4-0.2c3.2-1.9,7.4-1.2,10.4-3.2c9.1-5.9,17-13.3,24.1-21.4c3.4-3.9,5.6-8.9,10.6-11.3
	c0.9-0.5,1.6-1.1,2.4-0.1c1.1,1.1-0.6,1.6-0.7,2.4c-2.3,2-4.8,3.8-6.6,6.4c-3.7,3.4-7.6,6.6-9.7,11.4c0,0-0.1,0.1-0.1,0.1
	c-0.4-0.1-0.9-0.4-1.2-0.3c-3.4,1.4-5.9,3.5-7.6,7.2c-2.4,5.2-9.5,5.6-12.9,10.2c-2.7,0.8-4.8,2.5-6.7,4.5c-1.6,1-3.3,2-4.9,3.1
	c-10.1,5.5-18.9,12.8-28.4,20.1c8.3-1.9,14.6-6.7,21.8-9.7c3.5-1.4,7.4-3.6,9.6-7.4c7-0.8,11.9-5.4,17.4-9.2
	c5.4-3.6,11.2-6.9,17.1-9.9c6.5-3.4,12.5-8.1,18.1-13.2c5.4-4.9,11-9.7,16-15.1c1.5,0.8,0.3,2,0.4,3l0,0c-1,0.7-1.8,1.5-2.2,2.7
	c-0.9,0.9-1.7,1.8-2.6,2.6c0,0-0.1,0.1-0.1,0.1c-2.3,1.9-6.4,1-7.2,5c-1.8,1.7-3.6,3.4-5.4,5c-0.9,0.7-1.8,1.3-2.8,2
	c0,0-0.3,0.2-0.3,0.2c-1,0.1-1.6,0.7-1.7,1.7c0,0,0,0,0,0c-2.1-0.4-2.4,1.5-3.4,2.6c-1.8,1.4-3.5,2.8-5.3,4.3
	c-0.8,0.7-1.5,1.4-2.3,2.1c-4.9,1.8-9.2,4.6-12.9,8.3c0,0,0,0,0,0c-5.1,2.2-9,6.1-13,9.8c-5.3,4.9-12.6,7-18.3,11.4
	c-4.6,3.5-10.1,5.2-14.6,9c7.4-2.1,15.5-0.8,22.4-4.9c2.6-1.5,5.4-2.4,8.1-2.8c3.7-0.5,6.6-2,9.2-4.5c2.3-0.5,4-2.1,5.9-3.3
	c1.2,0.3,2.2,0.1,2.8-1.1c1.1-0.2,2.4-0.1,3.1-1.4c2.2-0.6,4-1.7,5.1-3.8c0.3-0.3,0.7-0.7,1-1c0.2,0,0.4-0.2,0.4-0.4
	c1.3-0.6,2.5-1.4,3.2-2.8c0,0,0.4-0.2,0.4-0.2c1.5,0,2.5-0.9,3.4-1.9v0c2.2-1.8,4.3-3.6,6.5-5.4c3,0.5,4.1-2.1,6-3.5
	c1.7-0.4,2.6,0.1,2.3,2c-1.1,0.7-2.3,1.5-3.4,2.2c-1.3-0.6-2.4-0.7-2.5,1.2c-0.6,0.7-1.1,1.4-0.8,2.4c0,0-0.2,0-0.1,0
	c-1.5-0.2-1.9,0.9-2.5,1.9c0,0,0,0,0,0c-6.7,3.4-12.1,8.8-18.2,13.1c0,0,0,0,0,0c-2.5,0.5-4.3,2.1-6.2,3.6
	c-8.6,6.3-17.8,11.6-27,16.7c-7.7,4.2-14.9,9.3-20.1,16.4c-0.3,0.3-0.9,0.4-1.3,0.6c-5.6,3.1-11.2,6.1-17.4,7.4
	c0.1,0.1,0.2,0.2,0.3,0.4c1.3,2.6,3.1,1.2,4.5,0.6c14.2-5.6,28.4-11.3,42.5-17c1.2-0.5,2.7-1.4,3.3-0.1c0.6,1.3-0.9,1.9-2.2,2.4
	c-4.7,1.7-9.6,2.9-13.3,6.6c0.7,1,1.7,1.1,2.3,0.7c6.5-4,14-5.5,20.7-8.8c5.4-2.6,9.9-6.8,15.8-8.8c2.9-1,7.1-1.6,8.8-5.4
	c1.7-0.5,3.5-1,4.6-2.7c1.1-0.8,2.1-1.5,3.2-2.3c0.5,0.3,1,0.7,1.6,1c-2.5,5-7.1,7.3-11.6,10c-15.2,9.1-30,18.9-46.7,25
	c-0.6,0.2-1.5,0.6-1.4,1.6c1.3,0.8,3.1,0.3,3.7-0.2c5.2-4.7,12.4-4.8,18.1-8.3c6.6-3.9,14-6.5,20.2-10.9c9.5-6.7,20.3-11.3,29.1-19
	c1.7-0.6,3.1-1.6,4.1-3.1c2.1-0.5,3.6-1.7,4.4-3.8c2-1.6,4-3.1,6.1-4.7c0.3,0.1,0.5,0,0.6-0.3c1.3,0.1,2.8-2.1,4.1,0.5
	c-0.7,0.4-1.4,0.8-2,1.2c-1,0.7-3,1-2.2,2.6c0.8,1.6,2.4,1.1,3.6,0.1c2.5-2.1,5.3-4,7.9-5.9c3-2.3,3.8-7,7.1-7.6
	c5.6-1,7.9-5.6,11.2-8.9c3.3-3.2,8.4-4.1,10.6-8.5c3.6-3.9,7.9-7.2,10.5-11.9c3.1-5.7,7.1-10.9,11.2-15.9c0.6,0.5,1.2,0.9,1.8,1.4
	c-0.5,0.9-1,1.8-1.4,2.7c-1.1,0.5-1.3,1.5-1.3,2.6c-0.9,0.4-0.9,1.2-1.2,2c-0.5,0.4-1.2,0.6-1.5,1.1c-9.5,13.3-20.8,25-32.7,36.1
	c-8.6,8.1-16.8,16.7-27.1,22.7c-0.8,0.5-2.2,1.2-1.8,3.6c5.9-3,10.6-7.3,16.2-10.3c-1.1,2.2-2.2,4.3-3.9,5.5
	c-8.5,5.6-15.3,13.2-24.1,18.4c-8.5,5-15.2,13.2-25.7,14.8c-0.7,0.1-1.4,0.8-1.9,1.4c-4.5,5.3-10.9,7.8-16.9,10.8
	c-6.2,3.1-12.3,6.4-18.4,9.6c4.4,1.3,8.9,0.5,11.8-1.5c8.7-5.8,18.9-8.4,27.5-14.2c2.2-1.5,4.5-2.3,7.2-1.9c2.1,0.3,3.4-0.6,4.2-2.9
	c1.6-4.3,6.6-4.5,9.8-6.9c0,0,0.6,0.7,0.9,1.1c0.2,0.3,0.4,0.5,0.6,0.8c1-0.4,2.1-0.7,3.1-1.1c1.4-0.4,3-2.8,4-1
	c1.1,1.8-1.7,2.2-2.9,3c-9.9,6-19.7,12.2-30.4,16.6c-6.7,2.8-12.6,7.2-20.1,8.4c-9.3,1.5-18.1,4.7-25.8,10.3c0.5,0.4,1.1,1,1.4,0.9
	c8.2-2.1,17-2.2,24.7-6.3c3.4-1.9,7.2-3.7,11-4.2c4.3-0.5,7.5-4.9,12.3-3.2c0.1,0.1,0.5-0.3,0.7-0.6c4.6-6.1,11.3-7.4,18.3-8.1
	c2.7-0.3,5.6-0.8,6.6-3.3c1.7-4.3,5.1-5.2,8.8-6.3c2-0.6,5.3-0.5,5.6-3c0.4-3.9,3.2-4.9,5.4-7.1c2.4-2.5,5.1-0.8,7.4-2.5
	c4.1-3,7.8-6.8,12.5-8.9c0.8-0.3,1.4-1,1.2-1.9c-0.9-5.5,3.7-5.6,6.5-5.2c3.2,0.4,4.6-1,5.7-3c1.9-3.4,4.9-5.5,7.9-7.9
	c4.2-3.4,7.9-7.3,11.7-11.1c0.4-0.4,1.2-1,0.6-1.6c-3.1-3,0.5-4.2,1.8-5.7c4.6-5,9.7-9.4,14-14.6c6-7.2,10.2-15.8,16.6-22.8
	c0.7-0.8,1.7-1.7,1.9-2.7c1.2-5.4,5.3-9.1,7.6-13.8c2.7-5.5,8.6-10.1,5.9-17.5c-0.3-0.8,0.8-2.7,1.7-3.3c7.2-4.9,8.1-13,10.6-20.3
	c0.2-0.4,0.5-0.8,0.7-1.2c0-0.2-0.1-0.4-0.1-0.6c0,0.2,0.1,0.4,0.1,0.6c0.8-1.1,1.9-2.1,1.9-3.6c0.6-0.5,0.7-1.2,0.4-1.9
	c0.9-3.3,4.3-5.7,3.2-9.7c-0.8-0.3-1.7-0.7-2.5-1c0.6-1.5,1.1-3,1.6-4.5c0.1,0.5,0.5,1,1.1,0.8c0.8-0.2,1-0.8,0.5-1.6
	c-0.3-0.5-0.7-0.6-1.2-0.2c0,0,0,0-0.1,0.1c2-6.4,3.1-13,4.4-19.5c0.7,0.2,1.6,0,2.5-0.5C739.3,504.2,739.8,502.5,738.8,500.8z
	 M782.5,543.1c0.4,0.6,0.6,0.7,1.2,0.4c0.4-0.2,0.8-0.5,0.9-0.7c0.2-0.7-0.7-1.7-1.5-1.6C782.2,541.2,781.9,542.1,782.5,543.1z
	 M777.1,529c0.3-0.1,0.5-0.2,0.6-0.3c0-0.1-0.1-0.3-0.4-0.3c-0.2-0.1-0.5,0.1-0.6,0.3C776.7,528.9,776.8,529.1,777.1,529z
	 M759.8,541.5c-0.1,0.2,0,0.5,0.3,0.6c0.2,0.1,0.5-0.1,0.5-0.3c0.1-0.2-0.1-0.5-0.3-0.6C760.2,541.1,759.9,541.2,759.8,541.5z
	 M759.3,532.7c0.4,1,1.2,1.4,1.8,0.7c1.2-1.5,0.3-2.9-1.2-2C759.1,531.8,759,532,759.3,532.7z M758,538.7c-0.3,0.1-0.6,0.3-0.6,0.6
	c-0.1,0.2,0.1,0.5,0.3,0.5c0.2,0.1,0.5-0.2,0.6-0.6C758.4,538.8,758.2,538.6,758,538.7z M753.6,549.2c1.2-0.6,1.3-0.8,1.2-2
	c-0.1-1.6-0.5-2.1-1.9-2.5c-0.8-0.3-1.4-0.1-2.1,0.8c-0.9,1-1,1.2-0.6,2.2C750.9,549.4,752.1,549.9,753.6,549.2z M756.2,540.8
	c0.4-0.2,0.7-0.6,0.7-0.9c-0.1-0.3-0.5-0.3-1,0C754.8,540.5,755.1,541.3,756.2,540.8z M747.7,556.2c0.2,0.1,0.7-0.1,1.2-0.4
	c0.5-0.3,0.9-0.7,1-0.9c0.2-0.6-0.7-2.2-1.3-2.4c-0.5-0.2-1.8,0.8-2,1.5C746.5,554.5,747.4,556.1,747.7,556.2z M755.6,533.9
	c-0.1-0.2-0.5-0.1-0.8,0.1c-0.5,0.3-0.5,0.4,0.2,0.3C755.4,534.3,755.7,534.1,755.6,533.9z M756.7,525.8c-0.6,0-0.8,1-0.3,1.4
	c0.3,0.2,0.5,0.1,0.6-0.5C757.1,526.2,757,525.8,756.7,525.8z M750,544.4c-0.5-0.4-1.2-0.1-1,0.4c0.1,0.2,0.4,0.3,0.8,0.2
	C750.4,544.8,750.4,544.7,750,544.4z M754.2,529.9c1.1-0.5,1.4-2,0.4-2.2c-1-0.3-1.8,0.8-1.4,1.8
	C753.4,530.1,753.6,530.2,754.2,529.9z M747.1,531.6c-0.4,1.3,0.2,2.2,1.3,1.9c1.1-0.2,1.4-1.1,0.8-2.1
	C748.6,530.4,747.4,530.5,747.1,531.6z M742.4,549.1c0.1,0.2,0.5,0.3,0.9,0.3c0.8-0.1,1.4-1.4,0.8-1.5
	C743.5,547.6,742.2,548.6,742.4,549.1z M746.3,526.8c0.7,1.3,2.3,2.1,3.3,1.5c1.1-0.6,1.1-0.7,0.9-2c-0.2-1.3-0.8-1.4-2.8-0.8
	C746.2,526,746,526.2,746.3,526.8z M749.3,517.9c0.1-1.2-1.2-1.8-1.5-0.6c-0.2,0.6,0,1,0.6,1.2C749,518.6,749.3,518.5,749.3,517.9z
	 M795.1,539.2c0.8-0.2,1-0.8,0.5-1.6c-0.3-0.5-0.7-0.6-1.2-0.2C793.6,538,794.2,539.5,795.1,539.2z M792.2,539.3
	c-0.5-0.8-1.2-0.8-1.6,0.2c-0.2,0.4,0,0.9,0.3,1.1C791.8,541.3,792.7,540.2,792.2,539.3z M787.8,541.4c-0.7-0.6-1.5-0.1-1.1,0.6
	c0.2,0.3,0.6,0.4,0.9,0.2C788,541.9,788.1,541.6,787.8,541.4z M788.3,540.7c-0.1,0.1-0.1,0.3,0.1,0.5c0.1,0.2,0.4,0.3,0.6,0.1
	c0.2-0.2,0.2-0.4-0.1-0.5C788.6,540.6,788.3,540.6,788.3,540.7z M419.1,403c-2.5,2.1-3.4,5-2.3,7.7c0.9,2.2,2.1,2.8,4,2
	c3.1-1.3,4.6-4.7,3.6-8.2C423.4,401.5,421.5,401,419.1,403z M403.6,358.4c-0.5,0.4-1.1,1-1.2,1.3c-0.3,1.1,0.7,2.7,1.6,2.5
	c1.1-0.3,1.6-1.8,1-3.3C404.6,357.9,404.4,357.8,403.6,358.4z M409.7,381.4c-0.3,0.2-0.7,0.5-0.7,0.6c-0.1,0.2,0.1,0.4,0.4,0.5
	c0.3,0.1,0.6-0.2,0.7-0.6C410.2,381.5,410.1,381.3,409.7,381.4z M431.9,357.7c-0.3-0.1-0.6,0.2-0.7,0.6c-0.1,0.4,0,0.8,0.3,0.9
	c0.3,0.1,0.6-0.2,0.7-0.6C432.2,358.2,432.1,357.8,431.9,357.7z M429.6,372c-1.6,2.6-0.7,4.9,1.2,3.2c0.9-0.8,1.1-1.2,0.8-2.3
	C431.3,371.3,430.3,370.8,429.6,372z M434.6,361.1c-0.3-0.1-0.6,0.4-0.8,1c-0.2,0.6-0.1,1,0.3,0.9c0.3-0.2,0.7-0.6,0.8-1
	C435,361.5,434.8,361.1,434.6,361.1z M443.6,350.9c1.2-1.8,1.3-2.1,1-3.7c-0.6-2.8-1.9-3.6-3.9-2.1c-1.5,1.1-1.7,1.6-1.7,3.4
	c0,2.7,0.3,3.4,1.9,4C441.9,352.7,442.6,352.3,443.6,350.9z M436.4,359.2c-0.6,0.4-1,1.1-0.9,1.5c0,0.5,0.5,0.5,1.2-0.1
	C438.1,359.5,437.8,358.2,436.4,359.2z M447.1,338.7c0.6,0.2,2.3-1.6,2.6-2.7c0.2-0.6-0.7-3.2-1.1-3.4c-0.2-0.1-0.9,0.3-1.5,0.8
	c-0.6,0.5-1.2,1.2-1.3,1.6C445.5,336,446.4,338.5,447.1,338.7z M436.3,370.5c0.1,0.3,0.5,0.2,1-0.2c0.7-0.6,0.7-0.7-0.1-0.5
	C436.6,369.9,436.2,370.3,436.3,370.5z M433.6,382.7c-0.1,0.8,0,1.4,0.3,1.4c0.8-0.1,1.1-1.7,0.5-2.3
	C434,381.5,433.7,381.8,433.6,382.7z M444.6,351.6c-0.6,0.3-0.7,0.5-0.3,0.9c0.6,0.6,1.4,0.1,1.2-0.8
	C445.5,351.5,445,351.4,444.6,351.6z M437.5,377c-1.4,1-1.9,3.4-0.8,3.8c1.1,0.4,2.3-1.5,2-3.2C438.4,376.6,438.2,376.5,437.5,377z
	 M444.9,370.3c-1.3,0.6-1.9,2.1-1.3,3.6c0.6,1.5,2,1.2,2.6-0.6C446.8,371.2,446.2,369.8,444.9,370.3z M453.1,343.4
	c-0.9,0.2-1.8,2.4-1.1,2.7c0.6,0.2,2.3-1.7,2.1-2.3C454.1,343.5,453.6,343.3,453.1,343.4z M446.5,381.1c-0.6-2.1-2.5-3.1-3.7-2
	c-1.4,1.2-1.4,1.2-1.3,3.3c0.1,2.1,0.7,2.2,3.3,1C446.6,382.5,446.9,382.1,446.5,381.1z M443,395.2c-0.7-0.2-1.1,0.1-1.2,1
	c-0.3,2,1.2,2.8,1.8,0.8C443.8,396,443.7,395.4,443,395.2z M464.8,378.6c-1,0.5-1.3,1.4-0.8,2.7c0.3,0.8,0.8,0.8,1.4,0.2
	C466.5,380.5,466,378.1,464.8,378.6z M481.8,370.6c0.7-1.8,0.3-2.3-1-1.2c-1,0.9-1.2,2.3-0.3,2.6
	C480.8,372.1,481.4,371.5,481.8,370.6z M468.4,378.1c0.5,1.3,1.3,1.1,2-0.5c0.2-0.6,0.1-1.4-0.3-1.8
	C469.1,374.8,467.8,376.7,468.4,378.1z M491.7,336.3c0.2-0.6,0.1-1.2-0.2-1.3c-0.3-0.1-0.6,0.4-0.8,1c-0.2,0.6-0.1,1.2,0.2,1.3
	C491.1,337.4,491.5,337,491.7,336.3z M478.2,382c-0.8,0.2-0.9,0.5-0.7,1.3c0.2,0.9,0.5,0.9,1.1,0.1
	C479.6,382.2,479.5,381.7,478.2,382z M474.2,372.8c-0.4,0.4-0.5,1-0.3,1.3c0.7,0.8,1.8,0,1.4-1.1
	C475.1,372.5,474.6,372.4,474.2,372.8z M472.5,374.5c-0.3,0.3-0.3,0.6,0,0.8c0.3,0.2,0.6,0.2,0.7,0.1c0.1-0.1,0.1-0.5,0-0.8
	C473.1,374.2,472.8,374.2,472.5,374.5z M478.1,389.8c-0.4-0.1-0.9,0.3-1,0.9c-0.2,0.6,0,1.2,0.4,1.4c0.4,0.1,0.9-0.3,1-0.9
	C478.7,390.6,478.5,390,478.1,389.8z M487,368c2.2,0.7,3.9-2.3,2.9-5.2c-0.5-1.6-0.7-1.6-2.1-0.8c-0.9,0.5-1.7,1.2-1.8,1.6
	C485.5,365.4,486,367.6,487,368z M481.7,387.7c0.8-0.3,1.3-1.1,1.6-2.6c0.5-2.4-0.5-3.4-2.1-2.1
	C478.8,385.1,479.2,388.7,481.7,387.7z M504,322.1c-1.1,0.3-1.5,1.7-1.2,3.9c0.2,1.4,0.4,1.5,1.3,0.9c0.6-0.4,1.2-1.2,1.3-1.7
	C505.9,323.7,505,321.8,504,322.1z M504.8,329.3c0.3,0.3,0.8,0.2,1.2-0.2c0.6-0.5,0.6-0.7,0-0.9c-0.4-0.1-1,0-1.2,0.2
	C504.5,328.7,504.5,329.1,504.8,329.3z M477.8,330.4c-1.1-3-2.7-3.5-4.9-1.7c-1.4,1.1-2.2,1.2-3.6,0.6c-1.3-0.6-1.9-0.5-2.1,0.2
	c-0.2,0.6,0,1.2,0.3,1.3c0.3,0.2,1.1,0.5,1.7,0.9c0.6,0.3,1.4,1.9,1.7,3.5c0.5,2.5,0.9,3.1,2.5,3.6
	C477.2,340.1,479.7,335.5,477.8,330.4z M499.8,391c-0.5-2.1-1.8-2.5-3.6-1c-2.3,1.9-2.7,4.6-1.1,7C497,399.8,500.7,395,499.8,391z
	 M532.3,336c-0.3-0.1-1.4,0.1-2.4,0.5c-1,0.4-1.7,0.9-1.7,1.2c0.1,0.2,1.2,0,2.4-0.5C531.9,336.7,532.7,336.2,532.3,336z
	 M536.7,334.4c-0.1-0.2-0.8-0.2-1.7,0.1c-0.9,0.3-1.4,0.7-1.2,0.9C534.4,336,536.9,335.1,536.7,334.4z M519.5,398.4
	c0.1-0.4,0-0.8-0.3-0.9c-0.3-0.1-0.5,0.2-0.4,0.7c0,0.5,0.2,0.9,0.3,0.9C519.2,399.1,519.4,398.8,519.5,398.4z M522,412.4
	c0.4,0.1,0.8-0.1,0.9-0.5c0.3-1-0.3-1.9-0.8-1.4C521.3,411.2,521.2,412.2,522,412.4z M521.4,416.3c0.4,0.1,0.9-0.3,1-0.9
	c0.4-1.3-0.1-2.3-0.7-1.8C520.8,414.4,520.6,416.1,521.4,416.3z M389.3,366.9c-1,0.5-1.3,1.4-0.8,2.7c0.3,0.8,0.8,0.8,1.4,0.2
	C390.9,368.7,390.4,366.3,389.3,366.9z M392.8,366.4c0.5,1.3,1.3,1.1,2-0.5c0.2-0.6,0.1-1.4-0.3-1.8
	C393.6,363,392.3,364.9,392.8,366.4z M398.7,361c-0.4,0.4-0.5,1-0.3,1.3c0.7,0.8,1.8,0,1.4-1.1C399.6,360.7,399.1,360.6,398.7,361z
	 M397,362.7c-0.3,0.3-0.3,0.6,0,0.8c0.3,0.2,0.6,0.2,0.7,0.1c0.1-0.1,0.1-0.5,0-0.8C397.6,362.4,397.3,362.4,397,362.7z M803.3,549
	c0.1-0.2-0.4-0.8-1.2-1.4c-0.8-0.6-1.8-1-2.1-1c-0.3,0,0.2,0.6,1.2,1.4C802.2,548.7,803.1,549.2,803.3,549z M798.6,545.8
	c0.3-0.1-0.1-0.6-0.8-1.1c-0.7-0.4-1.4-0.7-1.6-0.5C795.9,544.7,798,546.1,798.6,545.8z M795.4,600.7c-0.3,0-0.5,0.3-0.5,0.7
	c0,0.4,0.1,0.7,0.2,0.7c0.1,0,0.4-0.3,0.5-0.7C795.8,601,795.7,600.7,795.4,600.7z M788,611.7c0,0.4,0.3,0.6,0.7,0.6
	c0.8,0,1-0.8,0.4-1.6C788.8,610.2,788,610.9,788,611.7z M788.2,615.8c0.7,0,1-1.5,0.4-2.3c-0.5-0.6-1.2,0.2-1.2,1.3
	C787.5,615.3,787.8,615.8,788.2,615.8z M248.4,146.6c1.6,1.1,2.8,0.9,4.2-0.7c1.7-1.9,1.7-4.6-0.1-6.9c-1.7-2.3-3.7-2.3-5.3,0
	C245.4,141.5,245.9,144.7,248.4,146.6z M284.9,108.5c0.8,0.4,2.1-0.7,2.1-1.7c0-0.3-0.3-0.9-0.7-1.3c-0.6-0.7-0.9-0.7-1.5,0
	C283.9,106.7,283.9,108,284.9,108.5z M274.8,123.8c0-0.2-0.2-0.5-0.5-0.7c-0.3-0.2-0.5-0.1-0.5,0.3c0,0.4,0.2,0.7,0.5,0.7
	C274.6,124.1,274.8,123.9,274.8,123.8z M260.1,99.3c0.3,0,0.5-0.3,0.5-0.7c0-0.4-0.2-0.7-0.5-0.7c-0.3,0-0.5,0.3-0.5,0.7
	C259.6,99,259.9,99.3,260.1,99.3z M256.2,110.6c-0.5,0.9-0.5,1.3,0.1,2.1c1.4,1.9,2.8,0.2,2-2.4C258,109.2,256.9,109.3,256.2,110.6z
	 M256.7,101.7c0.3,0.2,0.5-0.1,0.5-0.6c0-0.6-0.2-1.1-0.5-1c-0.3,0-0.5,0.3-0.5,0.6C256.2,101.1,256.4,101.5,256.7,101.7z
	 M251.2,86.1c-0.8,1.2-0.8,1.6-0.1,3.3c0.5,1.4,1.1,1.9,2.1,1.9c1.6,0,2.2-0.6,2.9-2.8c0.5-1.5,0.4-1.9-0.7-3.2
	C254,83.6,252.6,83.9,251.2,86.1z M255.9,99.5c0.2-0.4,0-1-0.4-1.5c-1-1.2-1.6-0.2-0.6,1.1C255.3,99.8,255.7,99.9,255.9,99.5z
	 M251.1,78.5c0.8,0,2.2-1.8,2.2-2.8c0-0.3-0.3-1.1-0.8-1.6c-0.4-0.6-1-1-1.2-1c-0.4,0-2,1.9-2,2.5C249.4,76.6,250.5,78.5,251.1,78.5
	z M252.6,107.5c0.2-0.2-0.1-0.6-0.6-0.8c-0.7-0.4-0.8-0.3-0.3,0.4C252,107.5,252.4,107.7,252.6,107.5z M251.2,117.3
	c-0.8,0.4-0.9,1.8-0.2,2.1c0.3,0.1,0.6-0.4,0.7-1.1C251.8,117.4,251.7,117.1,251.2,117.3z M249.9,90.6c0.5-0.2,0.5-0.4,0-0.8
	c-0.3-0.3-0.8-0.3-0.9-0.1C248.6,90.3,249.2,90.9,249.9,90.6z M249.4,115.8c1.1,0,1.3-2.2,0.3-3.3c-0.5-0.6-0.8-0.5-1.2,0.2
	C247.7,114,248.3,115.8,249.4,115.8z M244.7,108.4c1-1.2,0.9-2.5-0.2-3.3c-1.1-0.8-2,0.3-2,2.2C242.5,108.9,243.8,109.5,244.7,108.4
	z M244.6,83.4c0.7,0,0.5-2.1-0.3-2.5c-0.4-0.2-0.9-0.2-1,0C242.8,81.4,243.9,83.4,244.6,83.4z M241.1,115.9c2.1,1.7,2.7,1.7,3.4,0
	c0.7-1.7,0.7-1.8-0.3-3.1c-0.9-1.2-2.9-0.8-4,0.8C239.5,114.4,239.7,114.8,241.1,115.9z M240.4,127.3c0.1-0.8-0.1-1.2-0.8-1.2
	s-1,0.5-1,1.4C238.6,129.3,240.2,129.1,240.4,127.3z M223.8,109.6c0.8-1,0.8-1.8,0-2.4c-0.9-0.7-2.1,1.1-1.4,2.3
	C222.8,110.1,223.3,110.1,223.8,109.6z M211,97.8c0.9,0,1.2-1.2,0.4-2.2c-0.9-1.3-1.5-0.9-1.3,0.7C210.2,97.1,210.6,97.8,211,97.8z
	 M220.6,105.8c0.9-1.1,0.2-2.9-0.9-2.4c-0.5,0.2-0.8,0.9-0.8,1.4C219,106.4,219.8,106.8,220.6,105.8z M210.8,66.5
	c0.3,0,0.5-0.5,0.5-1c0-0.6-0.2-1-0.5-1c-0.3,0-0.5,0.5-0.5,1C210.3,66,210.5,66.5,210.8,66.5z M210.6,107.8
	c0.5-0.7,0.4-0.9-0.2-1.3c-1.1-0.5-1.4-0.1-0.8,1.1C209.9,108.4,210.1,108.4,210.6,107.8z M216.6,101.1c0.3-0.2,0.3-0.7,0.1-1.1
	c-0.3-0.4-0.8-0.5-1.1-0.1C214.9,100.6,215.7,101.6,216.6,101.1z M216.8,102.3c0.1,0.1,0.4,0.2,0.7,0.1c0.3-0.1,0.4-0.4,0.2-0.7
	c-0.2-0.3-0.5-0.3-0.7-0.1S216.7,102.2,216.8,102.3z M207.6,114.1c0,0.6,0.3,1,0.7,1c0.4,0,0.7-0.5,0.7-1c0-0.6-0.3-1-0.7-1
	C207.9,113.1,207.6,113.5,207.6,114.1z M192,77.9c1,0,2.1-1.8,2.1-3.4c0-0.4-0.6-1.2-1.2-1.8c-1.2-1-1.3-1-2.2,0.1
	C189,75,189.8,78,192,77.9z M205.6,110.4c2.1,1.5,3.4-1.4,1.7-3.7c-1.1-1.5-2.4-1-2.5,1.2C204.6,109.1,204.9,109.9,205.6,110.4z
	 M202.8,54.1c0.9-1.7,0.9-3-0.1-3.5c-0.8-0.4-2.2,0.9-2.2,2.2c0,0.5,0.4,1.2,0.8,1.7C202,55.3,202.2,55.2,202.8,54.1z M200,56.4
	c0.3-0.1,0.4-0.5,0.2-0.8c-0.2-0.3-0.7-0.5-1.1-0.5c-0.6,0-0.6,0.2-0.2,0.8C199.2,56.4,199.7,56.6,200,56.4z M269.8,107.3
	c1.7,0,2.2-0.4,3.3-2.3c0.7-1.3,1.9-2.4,2.5-2.5c0.7-0.1,1.5-0.2,1.8-0.3c0.3-0.1,0.6-0.5,0.6-1c0-0.7-0.6-0.9-1.9-0.7
	c-1.5,0.2-2.2-0.1-3.2-1.4c-1.6-2.1-3.2-2-5.1,0.2C264.8,103,265.8,107.4,269.8,107.3z M190.5,114.8c2.1-1.6,2.5-3.9,0.9-6.1
	c-1.2-1.7-2.5-1.7-3.6,0C185.8,111.8,188,116.7,190.5,114.8z M173.8,56.5c1,0.7,2,1.2,2.1,1c0.1-0.2-0.4-0.8-1.2-1.4
	c-0.8-0.6-1.8-1-2.1-1C172.2,55.2,172.7,55.8,173.8,56.5z M171.2,54.3c0.3-0.1-0.1-0.6-0.8-1.1c-0.7-0.4-1.4-0.7-1.6-0.5
	C168.5,53.2,170.6,54.6,171.2,54.3z M167.7,110.6c0.1,0,0.4-0.3,0.5-0.7c0.2-0.4,0.1-0.7-0.2-0.7c-0.3,0-0.5,0.3-0.5,0.7
	C167.5,110.3,167.6,110.6,167.7,110.6z M161.3,120.9c0.8,0,1-0.8,0.4-1.6c-0.4-0.5-1.2,0.1-1.2,1
	C160.6,120.6,160.9,120.9,161.3,120.9z M160.8,124.3c0.7,0,1-1.5,0.4-2.2c-0.5-0.6-1.2,0.2-1.2,1.3
	C160.1,123.8,160.4,124.3,160.8,124.3z M297.3,118.5c0.8-1,0.8-1.8,0-2.4c-0.9-0.7-2.1,1.1-1.4,2.3
	C296.4,119,296.8,119.1,297.3,118.5z M294.1,114.8c0.9-1.1,0.2-2.9-0.9-2.4c-0.5,0.2-0.8,0.9-0.8,1.4
	C292.6,115.3,293.3,115.7,294.1,114.8z M290.1,110c0.3-0.2,0.3-0.7,0.1-1.1c-0.3-0.4-0.8-0.5-1.1-0.1
	C288.4,109.6,289.2,110.6,290.1,110z M290.3,111.3c0.1,0.1,0.4,0.2,0.7,0.1c0.3-0.1,0.4-0.4,0.2-0.7c-0.2-0.3-0.5-0.3-0.7-0.1
	C290.3,110.8,290.2,111.1,290.3,111.3z M507.5,766.7c0.4-3.3-1.8-5.3-5.3-4.8c-2.2,0.3-3.3,1.4-3.8,3.6c-0.6,2.7,0.9,4.6,3.9,5
	C505.2,770.9,507.2,769.5,507.5,766.7z M458.8,838.3c-1,0.3-1.7,2-1.2,2.8c0.2,0.2,0.8,0.4,1.5,0.4c0.9,0.1,1.2-0.2,1.4-1.1
	C460.9,838.9,460.1,838,458.8,838.3z M460.7,819.3c-0.3,0.2-0.4,0.5-0.3,0.6c0.1,0.1,0.5,0.2,0.9,0.2c0.4,0,0.5-0.3,0.3-0.6
	C461.4,819.2,461,819.1,460.7,819.3z M488.4,827c-0.3,0.2-0.3,0.6-0.1,0.9c0.2,0.3,0.6,0.3,0.9,0.1c0.3-0.2,0.3-0.6,0.1-0.9
	C489,826.8,488.6,826.8,488.4,827z M484.7,814.5c-2.4-0.4-2.8,1.9-0.7,3.2c1,0.6,1.9-0.3,2-1.7C486,814.9,485.8,814.6,484.7,814.5z
	 M490.4,822.7c-0.4,0-0.4,0.4-0.1,0.8c0.3,0.4,0.8,0.6,1.1,0.4c0.3-0.2,0.3-0.6,0.1-0.8C491.3,822.8,490.8,822.7,490.4,822.7z
	 M498.3,831.8c0.4,1.4,0.7,1.7,2.4,1.8c2.3,0.2,3.6-1,3.7-3.6c0.1-1.5-0.1-1.7-1.7-2.5c-1.3-0.7-2.1-0.6-3.1,0.1
	C498,828.9,497.8,829.7,498.3,831.8z M493.7,823.2c-0.8-0.1-1.3,0.1-1.3,0.5c0,0.4,0.6,0.7,1.3,0.8
	C495.3,824.6,495.3,823.5,493.7,823.2z M508.8,835.4c-0.7,0.6-1.2,3-0.7,3.6c0.2,0.2,0.9,0.5,1.7,0.6c0.7,0.1,1.5,0.1,1.7-0.1
	c0.4-0.3,0.9-2.8,0.5-3.2C511.5,835.6,509.4,835,508.8,835.4z M492.4,815.2c-0.6-0.1-1.1,0.1-1.1,0.3c0,0.3,0.4,0.3,1.1,0.2
	C493.3,815.4,493.3,815.3,492.4,815.2z M486.3,805.8c-0.3,0.1-0.3,0.7,0,1.3c0.3,0.7,0.7,0.8,1,0.3
	C487.8,806.6,487.1,805.5,486.3,805.8z M504.7,825.9c0.1-0.8-0.9-0.8-1.4,0c-0.4,0.5-0.3,0.7,0.5,0.6
	C504.2,826.4,504.6,826.1,504.7,825.9z M492.5,808.7c0-1.5-1.6-2.4-2.7-1.6c-1.1,0.8,0,2.5,1.6,2.6
	C492.2,809.8,492.5,809.6,492.5,808.7z M500.5,811.4c1.5-0.2,1.9-1.7,0.8-3.1c-0.9-1.2-2.5-0.7-2.8,0.8
	C498.2,810.7,499,811.6,500.5,811.4z M512.5,827.1c-0.7,0.5,0.7,1.8,1.7,1.6c0.5-0.1,1-0.5,1-0.8
	C515.3,827.3,513.1,826.7,512.5,827.1z M494.6,803.5c0.3,1.7,0.4,1.8,2,2c1.6,0.2,3.3-1.5,3.6-3.5c0.1-1-0.2-1.1-2.2-1
	C495,801.3,494.3,801.8,494.6,803.5z M493.8,792.5c0.7-0.5,0.7-1.1,0.2-1.8c-1-1.3-2.4,0.1-1.7,1.6C492.6,793,493.1,793,493.8,792.5
	z M520,792.2c-0.8-0.2-1.3,0.1-1.4,0.9c-0.3,1.3,0.2,1.9,1.3,1.8C521.3,794.7,521.3,792.5,520,792.2z M539.4,792.7
	c-0.5-0.5-1.3-0.8-1.7-0.5c-0.9,0.7-0.5,1.8,0.8,1.9C540.1,794.4,540.5,793.8,539.4,792.7z M523.8,793.4c-0.3,1.5,1.4,2.3,2.2,1
	c0.3-0.5,0.3-1.2-0.1-1.6C525,791.9,524.1,792.1,523.8,793.4z M555.2,814.7c-0.3,0.2-0.2,0.7,0.1,1.1c0.3,0.4,0.8,0.6,1,0.4
	c0.3-0.2,0.2-0.7-0.1-1.1C556,814.7,555.5,814.5,555.2,814.7z M533.7,784.1c-0.8-0.3-1-0.2-1.1,0.6c-0.1,0.8,0.1,1,0.9,0.7
	C534.9,785.1,534.9,784.6,533.7,784.1z M530.4,793.9c-0.2,0.4,0,0.8,0.6,0.9c0.5,0.1,1-0.2,1.1-0.7C532.3,793,531,792.9,530.4,793.9
	z M529.5,793.2c-0.1,0-0.5,0.2-0.8,0.4c-0.3,0.3-0.2,0.6,0.1,0.7c0.3,0.1,0.7-0.1,0.8-0.4C529.7,793.5,529.6,793.2,529.5,793.2z
	 M530.8,777.7c-0.4,0.3-0.5,0.9-0.2,1.3c0.3,0.4,0.9,0.5,1.3,0.2c0.4-0.3,0.5-0.9,0.2-1.3C531.7,777.5,531.2,777.4,530.8,777.7z
	 M545.4,792.2c-1,0.8-1.1,2.8-0.2,4c0.2,0.3,1.2,0.5,2.2,0.4c1.7-0.1,1.8-0.2,2.1-1.7C550,792.1,547.6,790.5,545.4,792.2z
	 M538.3,780.4c-0.6-1-1.3-1.4-2.2-1.2c-2.9,0.4-2.6,3.5,0.3,3.9C538.4,783.4,539.3,782.1,538.3,780.4z M571.2,816.5
	c-1.1-0.1-1.3,0.1-1.2,1.4c0.1,1.9,0.8,2.8,2,2.5c1.1-0.3,1.7-2.3,1-3.2C572.7,816.8,571.9,816.5,571.2,816.5z M571.4,814.2
	c-0.2,0.3-0.1,0.6,0.2,0.7c0.3,0.1,0.9-0.2,1.4-0.5c0.5-0.4,0.5-0.6-0.2-0.7C572.2,813.6,571.6,813.8,571.4,814.2z M561.8,771.6
	c-1.6,1.2-2,1.9-2,4.1c0,1.5-0.5,3.1-1.1,3.6c-0.6,0.6-1.3,1.2-1.6,1.5c-0.3,0.3-0.3,0.8,0,1.2c0.4,0.5,1,0.2,2.3-0.9
	c1.4-1.2,2.3-1.5,3.9-1.3c2.7,0.3,4.3-0.9,4.9-3.8C569.2,771,565.7,768.6,561.8,771.6z M548.5,765c-1.2,2.7-0.3,4.6,2.5,5
	c2.1,0.3,3.4-0.6,3.6-2.6C554.8,763.8,549.9,761.8,548.5,765z M597.2,795c-1.4,0.2-2.6,0.6-2.6,0.8c0,0.2,0.9,0.3,2,0.1
	c1.1-0.2,2.3-0.6,2.6-0.8C599.6,794.8,598.7,794.7,597.2,795z M601,794.7c-0.2,0.3,0.4,0.4,1.4,0.2c1-0.2,1.8-0.6,1.8-0.8
	C604.3,793.5,601.4,794.1,601,794.7z M573.4,751.4c-0.1,0.1-0.2,0.5-0.1,0.9c0,0.4,0.3,0.5,0.6,0.3c0.3-0.2,0.3-0.6,0.1-0.9
	C573.7,751.5,573.5,751.3,573.4,751.4z M573.9,739.3c-0.7,0.6-0.5,1.3,0.5,1.4c0.7,0.1,1.1-0.9,0.6-1.5
	C574.8,739,574.3,739,573.9,739.3z M573.4,738.4c0.8,0.1,1.1-1,0.4-1.8c-0.3-0.4-0.9-0.5-1.3-0.2
	C571.8,737.1,572.3,738.3,573.4,738.4z M442.5,839.3c-0.8-0.2-1.3,0.1-1.4,0.9c-0.3,1.3,0.2,1.9,1.3,1.8
	C443.8,841.8,443.8,839.6,442.5,839.3z M448.5,841.6c0.3-0.5,0.3-1.2-0.1-1.6c-1-1-1.9-0.7-2.2,0.6C446,842,447.7,842.8,448.5,841.6
	z M452.9,841c-0.2,0.4,0,0.8,0.6,0.9c0.5,0.1,1-0.2,1.1-0.7C454.8,840.1,453.5,840,452.9,841z M451.4,841.4c0.3,0.1,0.7-0.1,0.8-0.4
	c0.1-0.3,0-0.6-0.1-0.7c-0.1,0-0.5,0.2-0.8,0.4C451,841,451,841.3,451.4,841.4z M733.9,302.1c0.4,1,3.5,1.8,3.8,1
	c0.2-0.4-0.2-1.1-0.7-1.7C736,300.3,733.4,300.9,733.9,302.1z M735.8,310.3c2.9-2.8,2.3-5.2-1.8-7.2c-2.4-1.2-4.2-0.5-5.4,1.9
	C726.5,309.1,732.4,313.5,735.8,310.3z M788.3,347.2c1.2,0.6,0.1-1.9-2.6-5.6c-2.7-3.7-5.5-6.6-6.2-6.5c-0.7,0.2,0.5,2.7,2.6,5.6
	C784.3,343.6,787.1,346.5,788.3,347.2z M92.9,275.8c-0.7,1-0.5,1.7,0.6,2c1.9,0.6,3.1,0.1,3.5-1.5C97.5,274.6,94.1,274.1,92.9,275.8
	z M97.2,268.1c-2,1.1-2.1,2.4-0.3,2.9c2.1,0.6,4.3-1.5,2.8-2.8C99,267.7,98,267.7,97.2,268.1z M102.8,261.8c0.5-0.7,0.2-1.4-0.5-1.6
	c-1.5-0.5-2.4,1.3-1.1,2.2C101.6,262.8,102.3,262.5,102.8,261.8z M100.9,264.5c0.3-0.4,0.2-0.9-0.3-1.1c-0.5-0.1-1-0.1-1.1,0.1
	c-0.1,0.2,0,0.7,0.3,1.1C100.1,264.9,100.6,264.9,100.9,264.5z M516.2,732.1c0,0,0.1,0,0.1,0l0,0c0,0,0,0,0,0
	C516.3,732.1,516.3,732,516.2,732.1C516.3,732,516.2,732.1,516.2,732.1z M570,575.3c2.8-0.1,3.9-4.3,5.3-3.7c5,2,5.2-2.4,6.5-4.5
	c6.7-11.6,15.9-21.5,22.1-33.4c2.9-5.5,5.4-11.1,8.4-16.5c4.9-8.7,8-18.2,9.4-28.2c0.5-3.3,2.1-6.3,2.9-9.6c2.1-8.2,1.2-17,5-24.9
	c0.3-0.6,0.6-1.3,0.5-1.8c-2.6-7.6,0-15.3,1.1-22.4c1-6.8-0.5-12.9-0.6-19.3c-0.1-5.4-2-10.6-2.6-15.9c-0.3-2.5-2.5-6.4,1.9-8.6
	c0.7-0.4,3.4-5.8-2.2-6.2c-1.6-0.1-1.5-1.2-1.7-2.4c-2.1-9.9-4.4-19.8-6.5-29.7c-1.7-7.7-6.3-14.2-8-21.9c0-0.2-0.8-0.2-1.4-0.4
	c3.2,9.7,6.8,18.9,9.2,28.5c4.4,18.1,7.1,36.4,8.3,55c1.7,27.2-1.2,54-8.1,80.3c-5,19.1-15.3,35.9-25.4,52.6
	C586.9,554,578.5,564.6,570,575.3z M483.9,700.7c0.7-0.1,1.3-0.2,2-0.4C485.3,699.8,484.6,700.4,483.9,700.7z M483.2,700.5
	c0,0.1,0,0.2,0,0.3c0.2,0,0.5-0.1,0.7-0.2c-0.1,0-0.2,0-0.3,0.1C483.5,700.7,483.3,700.6,483.2,700.5z M473.2,108.4
	c-3-0.8-6.9-0.5-4.4-5.5c0.5-1-0.5-1.3-1.3-1.6c-3.3-1.3-6.4-2.9-10.1-2.7c-3.2,0.2-6.4-0.1-9.7-0.1c-1,0-2,0-2.3-1.2
	c-0.2-1,0.3-1.4,1.1-1.8c0.8-0.4,1.9-0.7,1.4-2.5c-5.2,1.3-11.1-0.9-16,3.7c3.3,1.9,6.1-0.8,8.8,0.1c1.2,0.4,3.4-0.8,3.3,1.5
	c0,1.3-1.2,2.5-2.9,2.6c-7.9,0.3-15,3.3-22.2,6.2c-2.6,1-3.6,2.4-4.7,4.2C434,109.8,453.5,107.7,473.2,108.4z M294,152.6
	c-30.7,16.4-55.5,40.1-79.1,65.2c-0.8,0.8-0.8,2.1-0.3,3.2c3.8-1.1,5.1-4.7,7.4-7.3c0.5-0.6,1.4-2.6,2.4-0.8
	c1.2,2.3,1.7,0.9,2.5-0.1c6.8-7.6,13.3-15.6,21.8-21.5c6.9-4.8,11-12.5,17.5-17.6c12.1-9.5,25.7-16.6,38.5-25.5
	C300.7,148.4,297,150.9,294,152.6z M435.1,121.3c0.5,0,1-0.1,1.4-0.1c8.4-0.4,17,0.7,24.7-4c-4.1-2.8-8.6-2.8-13.1-2
	c-5.4,1-10.8,1.1-16.2,1.7c-5.1,0.6-10.2,1.8-15.3,2.8c3.9-0.4,7.6,3,11.7,1.2c1.7-0.8,2.5-2.5,4.2-2.9
	C435.4,117.3,433,121.2,435.1,121.3z M416.5,119.7c-0.4,0-0.7,0.1-1.1,0.2C415.8,119.8,416.2,119.8,416.5,119.7z M462.9,116.9
	c-0.3-0.1-0.7-0.4-0.8-0.3c-0.3,0.2-0.6,0.4-0.9,0.6c0.6,0.4,1.2,0.9,1.8,1.4C462.9,118,462.9,117.5,462.9,116.9z M207.4,201.3
	c4.4-0.6,2.3,3.7,3.5,5.4c6.3-4.4,11.1-9.3,12.2-17.1c0.3-2.5,2.4-4.6,5-5.6c-4.6,0-6.6,3.1-7.8,7c-0.3,1-0.7,1.9-1.7,2
	c-1.4,0.2-1.4-0.9-1.4-1.9c0.1-2.6-1.1-2.1-2.6-1c-3.4,2.6-5.9,5.7-7,9.9C207.4,200.4,207.4,200.8,207.4,201.3z M425.9,126.7
	c-16,0.1-31.2,3.9-45.7,10.5C395.4,133.3,410.2,127.9,425.9,126.7z M637.6,388c-0.1-1.1-0.4-2.9-2.2-2.5c-1.4,0.3-1.1,1.8-0.9,2.9
	c1.3,7.3,1.1,14.7,2,22c0.4,3.3-0.5,6.7,1.4,10.3c2.5-2.2,2.2-4.5,1.5-6.5c-1-2.5-0.8-4.9-0.8-7.5
	C638.6,400.4,638.1,394.2,637.6,388z M259.8,202c4.4-6.6,9.9-11.4,16.7-14.7C270.3,188.1,260,197.4,259.8,202z M359.6,124.4
	c7.7-2.6,14.5-4.8,22-7.3C374.6,116.2,364.4,119.5,359.6,124.4z M228,230.8c6.5-3.2,9.2-9.6,13.8-14.6
	C234.7,218.8,233.2,226.4,228,230.8z M497.7,735.2c-0.4,0.1-1.1,0.9-1,1.3c0.1,1,0.9,1.2,1.8,1c4-0.9,8.2-1,12-2.8
	c1.9-0.9,5,0.8,5.8-2.6C509.7,731,503.9,734.4,497.7,735.2z M410.3,136.1c7.5-0.9,13.9-1.6,20.3-2.3
	C424,133.6,417.4,133.1,410.3,136.1z M192.8,253.7c6-5.8,8.4-12.3,12.7-17.5C199.6,240.4,195.8,245.9,192.8,253.7z M512.8,631.3
	c0.7,0.6,1.6,0.5,2.2-0.1c1.8-1.8,4.1-2.9,6.2-4.3c2.5-1.6,5.6-2.7,7.9-6.3c-7.2,1.6-11.2,6.6-16.5,9.5
	C512.5,630.2,512.6,631.1,512.8,631.3z M602,307.5c1.5,5.7,5.5,10.2,6.4,14.9C608,316,605.3,309.1,602,307.5z M534.6,615.2
	c0.1,0,0.3,0.1,0.4,0.1c-0.1-0.1-0.2-0.1-0.3-0.2L534.6,615.2z M250.6,500c2.3,5.8,5.7,9.7,9.1,13.6c0.3-3.1-3-4-3.4-6.9
	C255.9,504,253.6,502.2,250.6,500z M731.1,531.7C731.1,531.7,731.1,531.7,731.1,531.7L731.1,531.7c-0.1,0.1-0.1,0.1-0.1,0.1
	c0,0,0.1,0,0.1,0C731.1,531.8,731.1,531.7,731.1,531.7z M268.4,568.4c-2.3-4.6-7.1-6-10.5-8.3C260.7,563.2,263.8,566.8,268.4,568.4z
	 M344.3,214c2.3-1.4,4.1-3.6,7.1-3.7c0.7,0,1.9-1.1,1.1-2.2c-0.7-1-1.7-0.5-2.5,0c-1.4,0.9-2.7,3-4.4,2c-3.5-1.9-3.1,0.9-4,2.7
	c0.2,0.6,0.2,1.3,0.6,1.6C343,215.1,343.7,214.4,344.3,214z M392.5,116c1,0.6,2.4,0.8,3.2,0.1c1.7-1.6,3.5-1.2,5.2-0.6
	c0.7-0.1,1.2-0.2,1.6-0.3c1.4-0.6,3.7-0.7,3.4-2.7c-0.4-2.2-2.2-1.5-3.9-1.2c-2.3,0.4-4.7,0.4-7.1,0.5c-1.3,0-2.3,0.4-2.4,1.8
	C392.4,114.3,391.3,115.3,392.5,116z M457.9,87.2c-3.9-1.2-7.6,0.4-11.2,1.6C450.5,89.3,454.2,89.1,457.9,87.2z M475.3,682.6
	c-0.7-0.5-2.1,1-2.8,2.1c-0.4,0.6,0,0.9,0.3,1.1c1,0.9,2.1,0.6,3.1,0.1c2.3-1.1,4.6-2.3,7.3-3.6C480.3,682.3,478,684.4,475.3,682.6z
	 M277.9,541.7c-2.7-3.2-5.4-6.4-8.1-9.6c-0.3,0.3-0.7,0.7-1,1C271.2,536.6,274.3,539.4,277.9,541.7z M547.9,602.6
	c2.6-4.2,8.8-3.4,11.2-8.7C554,594.2,548.1,598.8,547.9,602.6z M621.4,172.3c-3.5-3.8-6.6-6.1-10.8-6.4
	C614.3,167.2,615.1,173,621.4,172.3z M565.7,583.7c-0.3-0.4-0.6-0.8-0.8-1.1c-3,2.5-6.1,4.9-9.1,7.4c0.3,0.3,0.5,0.6,0.8,1
	C560.5,589.6,563.5,587,565.7,583.7z M403.7,124.6c-3,0.2-4.5-0.5-6-1.4c-1.2-0.7-2.2,2.6-0.8,3.3
	C399.1,127.7,400.7,125.8,403.7,124.6z M180.9,295.9c0,0,0,0.1-0.1,0.1c0,0,0,0,0,0c0,0,0,0.1,0,0.1c0,0,0,0,0.1,0
	C180.9,296.1,180.9,296,180.9,295.9z M180.9,295.9c2-3.8,4.4-7.4,5.2-11.7C182.7,287.4,181.7,291.6,180.9,295.9z M310.6,206.8
	c-2.8,0.7-2.8,3.3-4.2,6.5c3.5-1.2,4.7-3.3,5.8-5.2C312.6,207.6,311.4,206.6,310.6,206.8z M283.2,567.1c0,1.3,3.2,1.8,5.5,1.7
	c-1-0.4-1.8-1.4-2.7-1.7C285.1,566.8,283.2,564,283.2,567.1z M534.6,615.2c0,0,0.1-0.1,0.1-0.1c-0.1,0-0.1,0-0.2,0
	C534.5,615.1,534.5,615.1,534.6,615.2z M535.2,612.1c-3.2,0.7-5.8,2.1-7.9,5.5c3.2-0.2,4.5-3.3,7.1-2.7
	C533.8,613.9,535.8,613.5,535.2,612.1z M633.6,374.7c-0.8,2.2,0.7,4.3,0.4,6.5c0,0.2,0.4,0.4,1,0.9c0-2.7,1-5-0.2-7.4
	C634.8,374.5,633.7,374.5,633.6,374.7z M332.2,220.4c1.2-0.3,2.5-1,2.6-2.4c0.1-0.9-0.6-1.6-1.5-1.5c-1.5,0.2-2,1.4-2.2,2.7
	C331.2,219.9,331.5,220.6,332.2,220.4z M228.4,458.6c0.1,0.6,0.1,1.1,0.1,1.7C228.8,459.7,228.7,459.1,228.4,458.6z M228.4,458.6
	c-0.2-1.8-0.7-3.7-1.6-5.6C225.4,455.6,227.6,457,228.4,458.6z M316.9,228.6c-2.4-0.2-3.3,0.6-3.7,2.1c0,0.2,0.3,0.7,0.5,0.7
	C315.5,231.6,315.9,230.2,316.9,228.6z M266.6,522.7c0.7,2.8,0.8,4.5,3.6,4.2C269.2,525.8,268.3,524.7,266.6,522.7z M231.2,179.4
	c-1.9,1-2.8,2.3-2.9,4.2C229.2,182.2,232,182.4,231.2,179.4z M228.3,183.6c0,0.1-0.1,0.1-0.1,0.2c0,0,0,0,0,0
	c-0.1,0-0.2,0.1-0.2,0.1c0.1,0,0.2,0,0.3,0C228.3,183.8,228.3,183.7,228.3,183.6z M740.7,338.5c-1.5,2.1,0.7,3.8,0.8,5.8
	c0,0.2,0.5,0.3,1.1,0.8c0-2.3,1.1-4.4-0.7-6.4C741.8,338.4,740.8,338.3,740.7,338.5z M565.8,581.9c2.4-0.3,4.2-0.6,5.5-2.6
	C568.9,578.6,567.5,579.7,565.8,581.9z M249.5,265.9c1.2-0.5,2.1-1,2-3C250.1,263.7,249.3,264.4,249.5,265.9z M732.8,526.7
	c-2.2,1.7-2.1,3.3-1.7,5C732.7,530.5,733.6,529.1,732.8,526.7z M245.8,270.3c2.3-0.8,3-1.9,3-3.7
	C247.3,267.3,246.4,268.2,245.8,270.3z M428.2,126.6c1.3,0.4,2.2,0.8,3.2-0.3C430.4,125.9,429.6,125.6,428.2,126.6z M375.7,178
	c-1.8-1.6-2.9-0.9-4,0.2c-0.2,0.2-0.2,1.1,0,1.2C373.3,180.3,374.1,178.8,375.7,178z M587,696.2c0.5,0.7,1,0,1.4-0.3
	c-0.2-0.3-0.4-0.5-0.6-0.8C587.3,695.4,586.4,695.4,587,696.2z M261.9,524.5c-0.3-0.1-0.6-0.2-0.9-0.4c0.1,0.3,0.3,0.6,0.4,0.9
	C261.5,524.8,261.7,524.7,261.9,524.5z M261,524.1c0-0.1,0-0.1-0.1-0.2l0,0c0,0-0.1,0-0.1,0c0,0,0,0.1,0,0.1
	C260.9,524.1,260.9,524.1,261,524.1z"/>
</svg>
